<svg xmlns="http://www.w3.org/2000/svg" viewBox="0 0 69 94" width="69" height="94">
	<defs>
		<linearGradient id="grd1" gradientUnits="userSpaceOnUse"  x1="71.917" y1="21.353" x2="7.493" y2="51.723">
			<stop offset="0" stop-color="#afafaf"  />
			<stop offset="0.329" stop-color="#508cc7"  />
			<stop offset="1" stop-color="#44749d"  />
		</linearGradient>
		<clipPath clipPathUnits="userSpaceOnUse" id="cp1">
			<path d="M8.93 65.17C10.01 65.29 10.43 63.93 10.12 62.93C10.19 60.85 10.51 58.41 11.41 55.92C12.26 53.57 13.68 51.01 15.87 48.55L15.87 48.55C16.13 48.27 16.39 47.98 16.66 47.7C18.49 45.82 20.6 44.17 22.86 42.71C25.58 40.94 28.5 39.43 31.6 38.02L31.6 38.02C33.09 37.35 34.6 36.7 36.16 36.06C39.47 34.71 45.51 32.54 51.31 30.28L51.31 30.28C54.96 28.86 57.98 27.58 60.81 26.2C62.72 25.27 64.14 24.48 65.19 23.87C68.2 22.1 67.74 22.14 68.04 22.03C68 22.05 67.66 22.3 68.96 21.36C67.61 21.63 64.22 23.44 60.34 25.23C57.38 26.6 54.48 27.83 50.92 29.25C50.92 29.25 50.92 29.25 50.92 29.25C46.47 31.03 39.36 33.67 35.75 35C34.13 35.59 32.58 36.19 31.07 36.81C27.74 38.18 24.74 39.62 21.97 41.29C19.06 43.04 16.55 44.99 14.44 47.2L14.44 47.2C12.12 49.64 10.45 52.35 9.39 55.1C8.51 57.39 8.08 59.68 7.93 61.81C8.71 62.8 9.01 64.32 8.93 65.17L8.93 65.17Z" />
		</clipPath>
	</defs>
	<style>
		tspan { white-space:pre }
		.shp0 { fill: #766862 } 
		.shp1 { fill: #f9f0b7 } 
		.shp2 { opacity: 0.514;fill: #000000 } 
		.shp3 { fill: #e3d49c } 
		.shp4 { fill: url(#grd1) } 
		.shp5 { fill: #c6d4e1 } 
	</style>
	<g id="layer1">
		<path id="path1123" fill-rule="evenodd" class="shp0" d="M8.06 0.64C3.61 0.65 -0.87 1.01 -5.36 1.64C-25.9 4.55 -46.83 13.3 -67.46 21.63C-88.09 29.95 -108.42 37.85 -127.67 39.11C-132.18 39.41 -136.63 39.34 -141.01 38.82L-141.01 37.74C-141.01 37.68 -141.01 37.62 -141 37.56L-141 37.54L-141 37.53C-141 37.44 -141.01 37.35 -141.01 37.27L-141.01 36.52L-141.01 28.86L-141.01 25.1C-141.01 25.04 -141.01 24.98 -141 24.92L-141 24.91L-141 24.89C-141 24.8 -141.01 24.72 -141.01 24.63L-141.01 23.89L-141.01 23.16L-141.01 19.39C-141.01 19.33 -141 19.28 -141 19.22L-141 19.2L-141 19.18C-141 19.1 -141.01 19.01 -141.01 18.92L-141.01 18.18L-141.06 18.18C-141.59 11.5 -147.17 6.27 -153.93 6.27L-153.93 6.27C-161.06 6.27 -166.86 12.06 -166.86 19.2L-166.86 19.2L-166.86 19.2C-166.86 19.29 -166.85 19.37 -166.85 19.46L-166.85 23.16L-166.85 24.56C-166.85 24.67 -166.86 24.79 -166.86 24.9L-166.86 24.91L-166.86 24.91C-166.86 25 -166.85 25.08 -166.85 25.17L-166.85 28.86L-166.85 29.58L-166.86 29.57L-166.86 92.57L-166.86 92.57C-166.86 101.16 -161.21 108.73 -152.98 111.19C-152.98 111.19 -152.97 111.2 -152.97 111.2L-152.96 111.2L-152.95 111.2L-152.95 111.2C-144.74 113.85 -136.27 114.61 -127.61 114.04C-108.18 112.77 -87.79 104.83 -67.16 96.5C-46.52 88.17 -25.63 79.45 -5.24 76.57C-1.55 76.04 2.13 75.72 5.78 75.61L5.78 86.01L5.78 86.01L5.78 86.01L5.78 86.01C5.78 88.27 7.33 90.26 9.67 91.65C12.02 93.04 15.2 93.88 18.71 93.88C22.22 93.88 25.41 93.04 27.75 91.65C30.1 90.26 31.64 88.27 31.64 86.01L31.64 86.01L31.64 78.21L31.64 78.21L31.64 4.3L31.29 4.19C23.66 1.69 15.9 0.62 8.06 0.64Z" />
		<path id="path1121" fill-rule="evenodd" class="shp1" d="M8.06 1.66C15.69 1.64 23.22 2.67 30.62 5.05L30.62 12.13C27.93 10.56 25.22 9.59 22.48 9.12L22.48 10.15C25.22 10.62 27.94 11.61 30.62 13.2L30.62 23.95C27.93 22.38 25.22 21.41 22.48 20.95L22.48 21.97C25.22 22.44 27.94 23.43 30.62 25.02L30.62 35.77C27.93 34.2 25.22 33.23 22.48 32.77L22.48 33.79C25.22 34.26 27.94 35.25 30.62 36.84L30.62 47.59C27.93 46.02 25.22 45.05 22.48 44.59L22.48 45.61C25.22 46.09 27.94 47.07 30.62 48.66L30.62 59.41C27.93 57.84 25.22 56.87 22.48 56.41L22.48 57.43C25.22 57.91 27.94 58.89 30.62 60.49L30.62 77.88C26.32 76.52 21.97 75.61 17.59 75.1L17.59 75.1L17.37 75.07C16.44 74.96 15.5 74.87 14.57 74.8C14.51 74.8 14.46 74.79 14.4 74.79C14.23 74.77 14.05 74.76 13.87 74.75C13.87 74.75 13.86 74.75 13.86 74.75C13.8 74.74 13.74 74.74 13.67 74.74C13.48 74.72 13.29 74.71 13.1 74.7C12.93 74.69 12.75 74.68 12.57 74.67C12.46 74.66 12.34 74.66 12.23 74.65C12.04 74.64 11.84 74.63 11.64 74.63C11.53 74.62 11.41 74.62 11.29 74.61C10.85 74.59 10.41 74.58 9.96 74.57C9.33 74.56 8.69 74.55 8.06 74.56L8.06 74.56C7.46 74.56 6.87 74.57 6.27 74.58L5.78 74.59L5.78 74.59C2.08 74.7 -1.65 75.03 -5.39 75.56C-25.96 78.47 -46.91 87.23 -67.54 95.56C-88.17 103.88 -108.48 111.77 -127.68 113.03C-136.25 113.59 -144.59 112.83 -152.67 110.22L-152.68 110.22L-152.68 110.22C-160.49 107.89 -165.84 100.71 -165.84 92.57L-165.84 87.04L-165.8 87.04L-165.8 87.03L-165.82 86.5L-165.82 86.5C-165.83 86.43 -165.83 86.36 -165.83 86.29L-165.83 86.29L-165.84 86.29L-165.84 85.87L-165.83 85.87C-165.83 85.87 -165.83 85.87 -165.83 85.87C-165.83 85.67 -165.82 85.46 -165.81 85.26L-165.81 85.26C-165.79 85.06 -165.78 84.86 -165.75 84.67L-165.75 84.66C-165.73 84.47 -165.7 84.27 -165.67 84.08L-165.67 84.08C-165.64 83.88 -165.6 83.69 -165.56 83.5C-165.56 83.5 -165.56 83.5 -165.56 83.5C-165.52 83.3 -165.47 83.12 -165.42 82.93L-165.42 82.93C-165.37 82.74 -165.32 82.55 -165.26 82.37C-165.2 82.19 -165.13 82 -165.06 81.82L-165.06 81.82C-165 81.64 -164.92 81.47 -164.85 81.29L-164.85 81.29C-164.69 80.94 -164.53 80.6 -164.34 80.26L-164.34 80.26C-164.25 80.1 -164.15 79.93 -164.05 79.77L-164.05 79.77C-163.95 79.61 -163.85 79.45 -163.74 79.3L-163.74 79.3C-163.63 79.14 -163.52 78.99 -163.41 78.84L-163.41 78.84C-163.29 78.69 -163.18 78.54 -163.05 78.39L-163.05 78.39C-162.93 78.25 -162.81 78.11 -162.68 77.97L-162.68 77.97C-162.55 77.83 -162.42 77.69 -162.29 77.56C-160.16 75.46 -157.24 74.16 -154.02 74.14L-154.02 98.98L-153.49 98.96C-146.87 98.73 -141.54 93.54 -141.04 87.04L-141.01 87.04L-141.01 86.41C-141.01 86.29 -141 86.17 -141 86.05L-141 86.04L-141 86.04C-141 85.93 -141.01 85.81 -141.01 85.69L-141.01 79.41L-141.01 75.64C-141.01 75.59 -141.01 75.53 -141 75.47L-141 75.45L-141 75.43C-141 75.35 -141.01 75.26 -141.01 75.18L-141.01 74.43L-141.01 66.77L-141.01 63.01C-141.01 62.95 -141.01 62.89 -141 62.83L-141 62.82L-141 62.8C-141 62.71 -141.01 62.63 -141.01 62.54L-141.01 61.79L-141.01 54.14L-141.01 50.37C-141.01 50.31 -141.01 50.25 -141 50.2L-141 50.18L-141 50.16C-141 50.08 -141.01 49.99 -141.01 49.9L-141.01 49.16L-141.01 41.5L-141.01 39.84C-136.6 40.35 -132.12 40.42 -127.6 40.13C-108.12 38.85 -87.72 30.9 -67.08 22.57C-46.44 14.24 -25.57 5.53 -5.21 2.65C-0.76 2.02 3.66 1.67 8.06 1.66L8.06 1.66Z" />
		<path id="path1119" fill-rule="evenodd" class="shp1" d="M-153.93 7.29L-153.93 7.29C-147.53 7.29 -142.29 12.34 -142.04 18.73L-142.03 18.93L-142.03 18.95L-142.03 18.96C-142.03 19.04 -142.02 19.11 -142.02 19.19C-142.02 19.25 -142.03 19.3 -142.03 19.35L-142.03 19.36L-142.03 19.91C-142.73 18.24 -143.77 16.74 -145.07 15.52L-145.07 16.96C-143.28 18.96 -142.15 21.56 -142.04 24.44L-142.03 24.64L-142.03 24.65L-142.03 24.67L-142.03 25.07L-142.03 28.86L-142.03 32.54C-142.73 30.87 -143.77 29.38 -145.06 28.15L-145.06 29.6C-143.28 31.59 -142.15 34.2 -142.04 37.08L-142.03 37.27L-142.03 37.29L-142.03 37.3L-142.03 37.71L-142.03 38.7L-142.03 38.7L-142.03 45.18C-142.73 43.51 -143.77 42.02 -145.06 40.79L-145.06 42.23C-143.28 44.23 -142.15 46.83 -142.04 49.71L-142.03 49.91L-142.03 49.93L-142.03 57.82C-142.73 56.14 -143.77 54.65 -145.06 53.43L-145.06 54.87C-143.28 56.86 -142.15 59.47 -142.04 62.35L-142.03 62.55L-142.03 62.56L-142.03 70.45C-142.73 68.78 -143.77 67.29 -145.06 66.06L-145.06 67.5C-143.28 69.5 -142.15 72.11 -142.04 74.99L-142.03 75.18L-142.03 75.2L-142.03 81.01C-142.46 80 -143.01 79.05 -143.68 78.19C-143.77 78.08 -143.86 77.96 -143.96 77.84C-143.96 77.84 -143.96 77.84 -143.96 77.84C-143.97 77.83 -143.98 77.82 -143.98 77.81C-143.99 77.8 -143.99 77.8 -144 77.79C-144.14 77.62 -144.28 77.46 -144.43 77.3C-144.49 77.24 -144.54 77.17 -144.6 77.12C-144.6 77.11 -144.6 77.11 -144.6 77.11C-144.65 77.07 -144.69 77.02 -144.74 76.97C-144.74 76.97 -144.74 76.97 -144.75 76.96C-144.8 76.91 -144.86 76.85 -144.91 76.8C-144.95 76.77 -144.98 76.73 -145.02 76.7C-145.02 76.7 -145.02 76.69 -145.02 76.69C-145.06 76.66 -145.09 76.63 -145.12 76.6C-145.25 76.48 -145.39 76.36 -145.53 76.24C-145.55 76.22 -145.57 76.19 -145.6 76.17L-145.6 76.17C-145.84 75.97 -146.08 75.78 -146.33 75.6L-146.33 75.6C-146.46 75.51 -146.58 75.42 -146.71 75.33L-146.71 75.33C-146.84 75.24 -146.97 75.16 -147.1 75.07L-147.1 75.07C-147.37 74.91 -147.64 74.75 -147.91 74.61L-147.91 74.61C-148.05 74.53 -148.19 74.46 -148.33 74.39L-148.33 74.39C-148.48 74.33 -148.62 74.26 -148.76 74.2L-148.76 74.2C-148.91 74.13 -149.05 74.07 -149.2 74.02L-149.2 74.02C-149.34 73.96 -149.49 73.9 -149.64 73.85L-149.64 73.85C-150.09 73.69 -150.55 73.56 -151.02 73.45L-151.02 73.45C-151.17 73.41 -151.33 73.38 -151.49 73.35L-151.49 73.35C-151.8 73.29 -152.12 73.24 -152.45 73.2L-152.45 73.2C-152.61 73.18 -152.77 73.17 -152.94 73.15L-152.94 73.15C-153.1 73.14 -153.27 73.13 -153.43 73.13L-153.43 73.13C-153.6 73.12 -153.76 73.12 -153.93 73.12L-153.93 73.12L-153.93 73.12C-157.44 73.12 -160.62 74.52 -162.95 76.8C-163.39 77.23 -163.81 77.7 -164.18 78.19C-164.28 78.32 -164.37 78.44 -164.46 78.57C-164.55 78.69 -164.64 78.82 -164.72 78.95C-165.07 79.47 -165.37 80.02 -165.64 80.59C-165.7 80.73 -165.77 80.88 -165.83 81.02L-165.83 79.41L-165.83 76.41L-165.79 76.41L-165.82 75.9C-165.83 75.83 -165.83 75.76 -165.83 75.7L-165.83 75.06C-165.74 72.15 -164.61 69.51 -162.79 67.49L-162.79 66.05C-164.09 67.26 -165.12 68.74 -165.83 70.4L-165.83 66.77L-165.83 63.78L-165.79 63.77L-165.82 63.26C-165.83 63.2 -165.83 63.13 -165.83 63.06L-165.83 62.42C-165.74 59.51 -164.61 56.87 -162.79 54.86L-162.79 53.41C-164.09 54.63 -165.12 56.11 -165.83 57.77L-165.83 54.14L-165.83 51.14L-165.79 51.14L-165.82 50.63C-165.83 50.56 -165.83 50.49 -165.83 50.43L-165.83 49.78C-165.74 46.88 -164.61 44.24 -162.79 42.22L-162.79 40.77C-164.09 41.99 -165.12 43.47 -165.83 45.13L-165.83 41.5L-165.83 38.5L-165.79 38.5L-165.82 37.99C-165.83 37.92 -165.83 37.86 -165.83 37.79L-165.83 37.15C-165.74 34.24 -164.61 31.6 -162.79 29.58L-162.79 28.14C-164.09 29.35 -165.12 30.84 -165.83 32.49L-165.83 28.86L-165.83 25.87L-165.79 25.87L-165.82 25.35C-165.83 25.29 -165.83 25.22 -165.83 25.15L-165.83 24.51C-165.74 21.61 -164.61 18.97 -162.79 16.95L-162.79 15.5C-164.07 16.71 -165.11 18.18 -165.81 19.82L-165.82 19.65C-165.83 19.5 -165.84 19.34 -165.84 19.19C-165.84 12.61 -160.51 7.29 -153.93 7.29L-153.93 7.29Z" />
		<path id="path1117" fill-rule="evenodd" class="shp2" d="M22.31 68.23L22.31 69.26C25.05 69.73 27.77 70.71 30.46 72.31L30.46 71.23C27.77 69.66 25.05 68.69 22.31 68.23Z" />
		<path id="path1115" fill-rule="evenodd" class="shp3" d="M-153 74.2C-148.59 74.54 -144.88 77.26 -143.12 81.07C-143.11 81.07 -143.11 81.08 -143.11 81.08C-143.1 81.1 -143.09 81.12 -143.08 81.14L-143.08 81.14C-143.03 81.25 -142.99 81.36 -142.94 81.48C-142.91 81.55 -142.88 81.62 -142.85 81.69C-142.82 81.77 -142.79 81.85 -142.76 81.93C-142.72 82.04 -142.68 82.15 -142.64 82.26C-142.63 82.31 -142.61 82.35 -142.6 82.4C-142.55 82.54 -142.51 82.69 -142.47 82.83C-142.47 82.84 -142.47 82.84 -142.47 82.84C-142.46 82.86 -142.45 82.89 -142.45 82.91C-142.44 82.92 -142.44 82.92 -142.44 82.92C-142.4 83.09 -142.35 83.26 -142.32 83.44C-142.32 83.44 -142.32 83.44 -142.32 83.44C-142.27 83.63 -142.23 83.82 -142.2 84.01L-142.2 84.01C-142.17 84.21 -142.14 84.4 -142.12 84.6L-142.12 84.6C-142.09 84.8 -142.07 84.99 -142.06 85.19L-142.06 85.19C-142.04 85.39 -142.04 85.59 -142.03 85.8C-142.03 85.8 -142.03 85.8 -142.03 85.8L-142.03 85.8C-142.03 85.88 -142.02 85.96 -142.02 86.05L-142.02 86.05L-142.02 86.05C-142.02 86.1 -142.02 86.16 -142.03 86.21L-142.03 86.21C-142.03 86.31 -142.04 86.4 -142.05 86.5L-142.08 87.04L-142.07 87.04C-142.55 92.82 -147.16 97.44 -153 97.9L-153 74.2Z" />
		<path id="path1113" fill-rule="evenodd" class="shp3" d="M8.06 75.57L8.06 75.57C8.69 75.57 9.32 75.58 9.94 75.59C10.49 75.6 11.04 75.62 11.58 75.64C11.6 75.64 11.62 75.65 11.64 75.65C13.29 75.72 14.93 75.84 16.57 76.02L16.57 78.28C13.61 78.58 11.01 79.45 9.09 80.74C8.14 81.38 7.37 82.14 6.8 82.97L6.8 75.59C7.22 75.58 7.64 75.58 8.06 75.57L8.06 75.57Z" />
		<path id="path1111" fill-rule="evenodd" class="shp1" d="M17.59 76.12C21.97 76.65 26.32 77.57 30.62 78.95L30.62 86.01L30.62 86.01C30.62 87.81 29.38 89.5 27.23 90.78C25.08 92.05 22.06 92.86 18.71 92.86C18.15 92.86 17.6 92.84 17.07 92.79L17.07 92.78C16.87 92.77 16.68 92.75 16.48 92.73L16.48 92.74C16.28 92.71 16.07 92.69 15.87 92.66L15.87 92.65C15.68 92.63 15.5 92.6 15.31 92.57L15.31 92.57C15.11 92.53 14.91 92.5 14.71 92.46L14.72 92.45C14.53 92.41 14.35 92.37 14.16 92.33L14.16 92.33C13.98 92.29 13.79 92.24 13.61 92.19L13.61 92.18C13.43 92.13 13.25 92.08 13.07 92.03L13.07 92.03C12.89 91.98 12.71 91.92 12.54 91.86L12.54 91.85C12.37 91.79 12.21 91.73 12.04 91.67L12.04 91.67C11.87 91.6 11.7 91.53 11.54 91.46L11.54 91.45C11.38 91.39 11.23 91.32 11.08 91.24L11.08 91.25C10.92 91.17 10.77 91.09 10.62 91.01L10.62 91.01C10.47 90.93 10.33 90.85 10.19 90.77L10.19 90.78C10.05 90.69 9.91 90.61 9.78 90.52L9.78 90.51C9.65 90.43 9.53 90.34 9.4 90.25L9.4 90.26C9.27 90.16 9.15 90.07 9.03 89.97L9.03 89.96C8.92 89.87 8.81 89.78 8.71 89.69L8.7 89.7C8.59 89.6 8.49 89.5 8.38 89.4L8.39 89.39C8.3 89.29 8.2 89.2 8.11 89.1L8.11 89.1C8.02 89 7.93 88.9 7.85 88.79L7.86 88.79C7.78 88.69 7.7 88.58 7.63 88.48L7.62 88.49C7.55 88.38 7.48 88.27 7.42 88.16L7.43 88.16C7.37 88.05 7.31 87.95 7.26 87.85L7.25 87.85C7.2 87.74 7.15 87.63 7.1 87.52L7.12 87.52C7.07 87.41 7.03 87.31 7 87.21L6.99 87.21C6.96 87.1 6.93 86.99 6.9 86.88L6.91 86.87C6.89 86.77 6.87 86.66 6.85 86.56L6.84 86.56C6.82 86.38 6.8 86.19 6.8 86.01L6.8 86.01L6.8 86.01C6.81 84.38 7.83 82.82 9.66 81.59C11.49 80.35 14.11 79.47 17.12 79.23L17.59 79.19L17.59 76.12Z" />
		<path id="path956" fill-rule="evenodd" class="shp2" d="M-166.34 86.02L-166.06 86.29L-166.61 86.3L-166.34 86.02Z" />
		<g id="g1854">
			<path id="rect3116" class="shp4" d="M43.67 19.78C36.22 21.56 29.77 23.75 26.23 28.08C25.53 28.48 25.26 28.75 24.57 29.14C24.82 30.92 24.78 30.21 25.46 31.16C26.32 32.73 28.58 35.28 28.18 35.79C28.07 34.38 26.5 34.5 24.82 31.97C24.02 30.74 23.81 31.1 22.34 30.38C20.3 31.56 17.7 32.98 15.6 34.58L12.95 36.68C12.45 39.2 11.49 38.12 11.73 40.2C12.12 43.62 12.74 43.97 13.48 45.11C12.77 44.02 11.81 43.75 10.87 40.46C10.51 39.22 10.77 40.42 10.63 38.91C9.61 40.76 8.26 40.33 7.63 42.36C6.13 47.16 5.67 50.06 7.31 54.26C7.92 55.8 8.73 57.19 9.69 58.44C11.27 57.86 12.8 57.39 14.26 57.07C18.12 56.21 21.51 56.25 24.3 56.51C29.17 56.87 31.53 58.67 33.3 55.45C31.59 54.32 36.52 53.18 34.68 52.08L36.42 51.02C38.61 51.64 30.64 47.53 29.04 47.03C27.62 46.5 26.41 46.18 25.4 46.02C25.22 45.99 25.04 45.96 24.87 45.95C23.83 45.83 23.08 45.91 22.58 46.06C23.07 45.91 23.76 45.77 24.75 45.74C24.94 45.74 25.15 45.74 25.37 45.74C26.39 45.78 27.61 45.93 29.07 46.28C31.31 46.82 32.16 48.11 34.85 49.28C35.32 49.48 37.33 49.29 37.81 49.5C40.62 50.79 36.67 47.43 39.08 48.64C43.27 47.63 49.34 44.39 52.13 40.75C54.49 40.01 56.82 39.36 58.54 37.13C58.94 37.38 59.39 37.63 58.75 37.21C58.69 37.17 58.63 37.13 58.57 37.09C58.59 37.07 58.61 37.05 58.62 37.02C58.4 36.92 58.26 36.86 58.19 36.83C56.95 35.99 55.92 35.18 55.13 34.47C54.64 34.02 54.24 33.61 53.91 33.25C53.57 32.85 53.31 32.5 53.14 32.2C53.05 32.04 52.99 31.89 52.94 31.76C52.89 31.62 52.87 31.5 52.87 31.39C52.87 31.28 52.89 31.19 52.93 31.11C52.97 31.03 53.04 30.97 53.11 30.91C53.03 30.97 52.98 31.04 52.95 31.13C52.93 31.2 52.92 31.29 52.95 31.39C52.97 31.48 53.01 31.58 53.08 31.69C53.15 31.8 53.23 31.91 53.34 32.04C53.54 32.28 53.83 32.55 54.21 32.87C54.56 33.15 55 33.48 55.52 33.83C56.48 34.48 57.76 35.23 59.3 35.98C60.77 36.69 61.41 33.36 63.31 33.97C63.74 33.32 64.14 32.66 64.52 31.99C67.17 27.33 69.58 26.3 69.07 21.27C64.44 20.2 60.73 20.09 57.1 19.89C55.3 18.76 53.4 18.75 51.83 18.73C51.16 19.56 50.64 18.28 49.88 19.06C49.17 19.81 48.44 20.53 47.79 21.19C46.73 22.27 45.79 23.24 44.96 24.26C44.23 25.18 43.68 26.02 43.3 26.85C42.8 27.94 42.63 28.91 42.64 29.71C42.63 28.91 42.71 27.92 43.07 26.72C43.35 25.8 44.47 24.64 45.09 23.55C45.86 22.17 46.98 21.54 48.04 20.05C49.63 17.84 48.51 18.81 46.64 19.05C45.57 19.2 44.62 19.55 43.67 19.78L43.67 19.78Z" />
			<g id="Clip-Path: path3123" clip-path="url(#cp1)">
				<path id="path3123" class="shp5" d="M8.93 65.17C10.01 65.29 10.43 63.93 10.12 62.93C10.19 60.85 10.51 58.41 11.41 55.92C12.26 53.57 13.68 51.01 15.87 48.55L15.87 48.55C16.13 48.27 16.39 47.98 16.66 47.7C18.49 45.82 20.6 44.17 22.86 42.71C25.58 40.94 28.5 39.43 31.6 38.02L31.6 38.02C33.09 37.35 34.6 36.7 36.16 36.06C39.47 34.71 45.51 32.54 51.31 30.28C51.31 30.28 51.31 30.28 51.31 30.28C54.96 28.86 57.98 27.58 60.81 26.2C62.72 25.27 64.14 24.48 65.19 23.87C68.2 22.1 67.74 22.14 68.04 22.03C68 22.05 67.66 22.3 68.96 21.36C67.61 21.63 64.22 23.44 60.34 25.23C57.38 26.6 54.48 27.83 50.92 29.25C50.92 29.25 50.92 29.25 50.92 29.25C46.47 31.03 39.36 33.67 35.75 35C34.13 35.59 32.58 36.19 31.07 36.81C27.74 38.18 24.74 39.62 21.97 41.29C19.06 43.04 16.55 44.99 14.44 47.2L14.44 47.2C12.12 49.64 10.45 52.35 9.39 55.1C8.51 57.39 8.08 59.68 7.93 61.81C8.71 62.8 9.01 64.32 8.93 65.17L8.93 65.17Z" />
			</g>
		</g>
	</g>
</svg>