<svg xmlns="http://www.w3.org/2000/svg" viewBox="0 0 212 103" width="212" height="103">
	<style>
		tspan { white-space:pre }
		.shp0 { fill: #c61e59 } 
		.shp1 { fill: #c1275a } 
		.shp2 { fill: #a51f52 } 
		.shp3 { fill: #100d0d } 
	</style>
	<path id="Layer" class="shp0" d="M206.5 3.9C206.7 3.7 206.9 3.6 207 3.4C206.6 3.6 206.1 3.9 205.7 4.1C206 4 206.3 4 206.5 3.9Z" />
	<path id="Layer" class="shp0" d="M116.6 15C113.1 15.7 109.7 16.8 106.5 19C101.9 22.1 97.8 25.9 94.1 30C87.1 37.7 80.5 45.8 72.5 52.6C74.1 52 75.6 51.5 77.2 50.9C82.6 47.6 87.8 45 92.2 40.2C96 36.1 99.3 31.5 103.4 27.5C103.6 27.3 104 27.6 103.8 27.8C100 32.7 96 37.6 91.6 41.9C88.1 45.3 84.4 47.6 80.4 49.8C83 49 85.6 48.1 88.2 47.4C88.2 47.3 88.2 47.3 88.3 47.2C92.6 43.4 98.3 41.9 102.6 38.1C107.1 34.2 110.9 29.6 115 25.2C117.9 22.1 121.6 18.4 125.6 15.7L125.7 15.6C125.8 15.5 126 15.4 126.1 15.4C127.2 14.7 128.3 14.1 129.5 13.5C128.9 13.5 128.3 13.4 127.6 13.4L125.5 13.4C123.4 13.6 121.4 14.2 119.5 15.2C116.8 16.6 114.3 18.2 111.5 19.4C111.1 19.6 110.9 18.9 111.2 18.7C112.8 17.5 114.6 16.1 116.6 15L116.6 15Z" />
	<path id="Layer" class="shp0" d="M159.6 30.9C159.4 30.9 159.2 31 159 31C159.2 31 159.4 30.9 159.6 30.9Z" />
	<path id="Layer" class="shp0" d="M114.8 26.7C114 27.6 113.2 28.4 112.4 29.3C109.1 33 105.7 36.9 101.7 39.9C98 42.7 93.5 44.2 89.8 46.9C95.9 45.1 102 43.5 108.2 42C112.3 40.3 116.5 38.4 120.2 35.9C125 32.7 128.6 28.8 132.4 24.6C135.6 21.1 139.3 17.1 143.7 14.5C143.8 14.4 144 14.3 144.1 14.2C138.4 15.1 133 15.8 127.6 18.4C123 20.7 119.2 24.1 114.8 26.7Z" />
	<path id="Layer" class="shp0" d="M147.9 25.3C143.8 29.2 139.4 33.6 134.2 36.1C136.5 35.6 138.8 35.1 141.2 34.5C143.2 33.6 145.1 32.6 146.9 31.4C149.1 29.9 151.1 28.1 153.3 26.7C153.5 26.6 153.7 26.9 153.6 27C151.6 29 149 30.8 146.6 32.4C146 32.8 145.3 33.3 144.5 33.7C146.6 33.2 148.6 32.7 150.7 32.2C153.1 31 155.5 29.8 157.8 28.7C160 26.7 162.5 25 164.7 22.9C166.6 21.1 168.2 18.9 170.1 17.1C171.9 15.5 173.9 14.1 176.1 12.9L176 12.9C175.2 13 174.5 13.1 173.7 13.2C171.5 14.1 169.2 14.7 167.2 15.8C163.8 17.6 160.8 19.9 157.7 22.1L157.6 22.1C157.3 22.4 157 22.6 156.6 22.8C156.4 22.9 156.2 22.6 156.3 22.5C159.9 18.9 164.2 14.9 169.1 12.4C168.4 12.4 167.7 12.5 166.9 12.5C164 13.1 161.3 14 158.6 16C154.7 18.7 151.3 22 147.9 25.3L147.9 25.3Z" />
	<path id="Layer" class="shp0" d="M132.6 26.3C132.5 26.3 132.5 26.3 132.6 26.3C131.1 27.9 129.6 29.5 128.1 30.9C123.3 35.3 118 38.4 112.3 41.1C115.1 40.4 117.9 39.8 120.7 39.2C123.3 36.7 127.1 35.3 130.1 33.5C134.9 30.7 138.3 27.5 141.3 22.9C141.5 22.7 141.9 22.8 141.8 23.1C140.2 27.2 137 30.2 133.4 32.5C130 34.6 126.4 36.8 122.9 38.8C125.4 38.2 128 37.7 130.5 37.1C139.5 33.7 145.6 26 152.7 19.8C155 17.7 157.9 15.4 161.1 13.6C155.2 13 149.1 14.9 144 17.7C139.5 19.9 136.3 23.3 132.6 26.3L132.6 26.3Z" />
	<path id="Layer" class="shp0" d="M45.4 52.8C41.3 61.9 34.6 68.9 28.2 76.4C31.9 73.7 35.7 71.1 39.5 68.6C43.4 63.6 47.8 59.2 51.2 53.8C54.6 48.5 57.2 42.8 60.5 37.5C63.9 32.1 68.2 26.6 73.3 22.6C68.7 24.8 64.6 27.4 61.1 31.7C57.3 36.4 54.4 41.5 51.5 46.8C51.4 47 50.9 46.9 51 46.6C53.3 40.5 57.3 33.4 62.6 28.1C58.9 31.1 55.6 34.1 52.9 38.5C50.1 43.1 47.7 47.9 45.4 52.8L45.4 52.8Z" />
	<path id="Layer" class="shp0" d="M36.7 55.9C36.9 54.4 37.2 53 37.7 51.5C35.3 55.9 32.9 60.3 30.8 64.9C28.1 70.7 25.4 76.5 21.5 81.5C23.2 80.2 24.8 79 26.5 77.7C29.5 73.3 33.3 69.6 36.6 65.5C40.9 60.2 43.7 54.5 46.5 48.3C48.9 42.9 52.1 36.6 56.4 31.8C47.2 38.2 40.9 45.1 37.2 56C37.1 56.2 36.6 56.2 36.7 55.9Z" />
	<path id="Layer" class="shp0" d="M68.6 28.4C64.9 32.4 61.9 36.9 59.2 41.6C54 50.9 48.8 60.4 40.9 67.7C45.5 64.8 50.2 62.1 55.1 59.8C59.4 55.4 63.5 51.3 67.1 46.3C70.8 41.2 74.3 36.1 78.1 31.1C82 26 87.4 19.9 93.7 16.4C93.3 16.4 93 16.5 92.6 16.5C91.7 16.7 90.8 16.9 90 17.1C82.4 19.4 77.2 26.2 70.8 31.2C70.6 31.3 70.4 31.1 70.5 30.9C75.5 26 80.8 20.6 87.2 17.7C84.5 18.4 81.9 19.2 79.3 20C75.5 22.6 71.8 25 68.6 28.4L68.6 28.4Z" />
	<path id="Layer" class="shp0" d="M75 36.5C69.9 43.7 64.7 53 57.5 58.6L57.6 58.6C62 56.6 66.4 54.8 70.8 53.1C80.7 44.6 88.2 34 97.6 25C101.9 20.9 107.6 16 113.8 14C113.5 14 113.2 13.9 113 13.9C110.9 14 108.7 14.2 106.6 14.4C105.1 14.6 103.6 15 102.2 15.5C100.5 16.3 98.9 17.3 97.3 18.5L97.2 18.5C94.3 21.2 91.8 24.4 88.8 27.1C88.6 27.2 88.4 27 88.6 26.9C91.3 24 93.7 20.2 96.9 17.5C97.2 17 97.5 16.6 97.9 16.2C94 17.8 90.4 19.6 87 22.6C82.5 26.9 78.6 31.6 75 36.5L75 36.5Z" />
	<path id="Layer" class="shp0" d="M17.5 84.4C17.4 84.3 17.4 84.2 17.5 84.1L18.7 82.9C19.2 82.3 19.6 81.8 20.1 81.2C24.1 75.7 25.3 69.3 28.1 63C28.2 62.8 28.5 62.9 28.5 63.2C27.2 67.7 25.9 72.2 23.8 76.3L23.8 76.2C25.5 73.4 27 70.5 28.4 67.6C29.2 65.7 30 63.8 30.9 61.9C30.9 61.8 31.1 61.8 31.1 61.8C31.2 61.7 31.2 61.6 31.3 61.5C33.3 57.2 35.3 52.5 37.9 48.4C32.5 54.4 27.8 61 24.4 68.3C21.3 75 18.6 82.2 13.5 87.6C14.8 86.6 16 85.6 17.3 84.6C17.4 84.6 17.4 84.5 17.5 84.4L17.5 84.4Z" />
	<path id="Layer" class="shp0" d="M168.4 23.8C164.9 26.5 161.1 28.6 157.1 30.5C162.5 29 167.8 27.2 173 25.2C174.3 22.6 178.1 20.7 180.4 19.4C181.5 18.8 182.5 18.2 183.6 17.6C185.3 16 187.6 14.8 189.1 13.8L191.8 12C190.9 12.4 190 12.9 189.1 13.4C187.8 14.2 186.4 14.9 185.1 15.6C182.3 17.4 179.3 18.9 176.6 20.9C174.9 22.2 173.3 23.4 171.6 24.6C171.3 24.8 170.9 25.1 170.6 25.2L168.5 26.4C168.5 26.4 168.4 26.4 168.4 26.3C167.8 26.6 167.3 26.8 166.7 27L166.6 27C166.5 27 166.4 27 166.4 26.9C166.3 26.9 166.3 27 166.2 27C166.1 27.1 165.9 26.8 166 26.7C173.1 20.6 179.2 13.5 188.4 10.7C188.5 10.6 188.6 10.6 188.7 10.5C187.7 10.7 186.7 11 185.7 11.3C181.7 13 178.4 14.9 175.1 18C172.8 19.9 170.7 22 168.4 23.8L168.4 23.8Z" />
	<path id="Layer" class="shp0" d="M174.5 26.2L174.2 26.2L174.5 26.2Z" />
	<path id="Layer" class="shp0" d="M173.6 28.7C172.9 28.8 172.3 28.9 171.7 29.1L171.8 29.1C176.7 29.1 181.6 29.3 186.5 29.2C191 29.1 193.9 28 197.5 25.9C197.8 25.5 198.1 25.1 198.3 24.6C198.3 24.6 198.3 24.5 198.4 24.5C198.4 24.4 198.4 24.4 198.5 24.3C195.4 27 191.2 28.3 187.2 28.5C182.5 28.7 178 28.1 173.6 28.7L173.6 28.7Z" />
	<path id="Layer" class="shp0" d="M179.9 32.6C175.7 32.4 171.5 32.3 167.4 32.4C172.3 33.3 176.9 34.1 182.1 33.9C182.2 33.9 182.3 34 182.4 34L184.2 34C184.5 34 184.6 34.5 184.3 34.6C179.6 35.8 173.8 36.1 169 35.4C166.1 35 163.4 34.3 160.7 33.9C157.8 34 155 34.3 151.9 34.3C157 34.5 162.3 35.5 167.2 36C167.6 36 168 36.1 168.4 36.1C169.4 36.2 170.3 36.3 171.2 36.3C176.3 36.5 181.7 36.7 186.6 35C186.8 34.9 187 34.9 187.1 34.8C188.3 34.2 189.4 33.4 190.5 32.6C186.9 33.3 182.7 32.8 179.9 32.6L179.9 32.6Z" />
	<path id="Layer" class="shp0" d="M176.7 45.2C173.3 44.6 170.2 43.3 166.9 42.5C163.4 41.7 159.9 41.5 156.4 41C156.3 41 156.3 40.8 156.4 40.7C160 40.2 163.2 40.4 166.6 41C171 41 175.5 41.2 179.8 40.4C181 40.2 182.1 39.9 183.1 39.6C177.3 40.6 170.6 38.3 165 36.9C157.7 36.1 150.3 35.1 144.1 35.9C138.9 37 133.7 38 128.6 39.3C126 40 123.3 40.6 120.7 41.2C130.8 40.2 141.4 45.2 150.9 47.2C157 48.5 163.2 50.1 169.5 49.8C174.8 49.5 179.1 48 183.3 45.5C180.8 45.8 178 45.5 176.7 45.2L176.7 45.2Z" />
	<path id="Layer" class="shp0" d="M171.3 42.2C171.4 42.2 171.5 42.3 171.6 42.3L171.6 42.2L171.3 42.2Z" />
	<path id="Layer" class="shp0" d="M190 37.7L190 37.6L190 37.7Z" />
	<path id="Layer" class="shp0" d="M191.3 19.7C191.7 19.6 192.1 19.5 192.6 19.4C194.9 17.6 197.8 16.5 199.9 14.3C201.3 12.9 202.5 11.3 203.7 9.7C203.6 9.8 203.5 9.8 203.4 9.9C200.2 13.8 195.8 17.1 191.3 19.7L191.3 19.7Z" />
	<path id="Layer" class="shp0" d="M181.1 25.7L181.7 25.7C188.5 25.3 195.4 23.9 200.1 19.1C200.3 18.6 200.6 18.2 200.8 17.7C200 18.3 199.1 18.8 198.2 19.2C193.6 22.9 187.2 24.6 181.1 25.7L181.1 25.7Z" />
	<path id="Layer" class="shp0" d="M151.6 34.5C151.5 34.5 151.4 34.4 151.4 34.4C151.2 34.4 151.1 34.5 150.9 34.5L151.6 34.5Z" />
	<path id="Layer" class="shp0" d="M52.7 76.2C49.7 75.1 43.8 72.5 39.9 73.5C36.7 75.7 33.6 78.1 30.5 80.4C36.2 78.2 43.7 82.6 48.3 85.4C53.4 88.4 58.6 91.6 64.4 93.2C65 93.4 65.5 93.5 66.1 93.6C66.2 93.6 66.2 93.6 66.3 93.5C66.4 93.5 66.5 93.6 66.6 93.7C69.5 94.3 72.1 94.4 74.8 94.2C69.1 94.1 63.3 91.9 59.8 87.8C59.6 87.6 59.9 87.3 60.1 87.5C66.6 92.7 73.3 93 81.1 92.7C82.2 92.3 83.2 91.9 84.3 91.3C77.8 90.1 71.3 86.5 65.7 83C61.6 80.3 57.4 78 52.7 76.2L52.7 76.2Z" />
	<path id="Layer" class="shp0" d="M28.7 82.4C28.5 82.5 28.4 82.4 28.3 82.3C26.6 83.7 24.8 85.1 23.1 86.5C27.1 85.3 33.1 88 36.1 89.2C40.6 91.1 44.8 93.7 49.5 94.8C51.1 95.2 52.6 95.3 54.2 95.4C51.3 94.7 48.6 93.3 46.8 91.4C46.7 91.2 46.9 91.1 47 91.2C49.2 93 51.7 94.2 54.6 94.7C56.1 95 57.7 95 59.2 95.1C60.8 94.9 62.3 94.5 63.9 94.2C61.9 93.6 59.9 92.8 58 92C50.2 88.2 37.5 76.7 28.7 82.4L28.7 82.4Z" />
	<path id="Layer" class="shp0" d="M69.4 71.3C63.9 67.7 57.9 64.5 51.4 66.1L49.9 67C57.5 65.8 67 70.7 71.1 76.7C71.2 76.9 70.9 77.1 70.8 76.9C65.2 71 57.1 66.3 48.7 67.7C46.3 69.2 44 70.7 41.7 72.3C47.2 72.2 55 76 58 77.5C63.4 80 68.2 83.6 73.5 86.3C77.8 88.5 82.7 90.6 87.6 90.5C92.6 90.4 96.5 88.6 100.9 86.6C95.2 85.9 89.9 83.8 84.9 81.1C79.4 78.2 74.5 74.7 69.4 71.3L69.4 71.3Z" />
	<path id="Layer" class="shp0" d="M143.8 64.6C138.3 63.3 132.7 60.9 128.2 57.6C117.9 52.7 107.6 47.3 97.3 47C97.2 47 97.1 46.9 97.1 46.9C96.1 47.1 95.2 47.4 94.2 47.6C101.8 46.6 108.8 49.3 115.4 53.1C123.6 57.9 131.3 63.1 140.3 66.3C140.5 66.4 140.4 66.7 140.2 66.7C123.1 63.4 111.6 44.9 92.7 48.3C92.6 48.3 92.5 48.2 92.4 48.1C89.4 48.9 86.5 49.8 83.5 50.8C82.4 51.2 81.3 51.6 80.1 52C91.4 51.2 101.7 57.9 110.9 63.7C115.6 66.7 120.5 69.9 125.7 72.1C128.8 72.9 132 72.8 135.2 73C138.6 73.2 142.3 73.4 145.7 72.6C150.7 71.4 154.6 69.3 158.9 66.7C154 67.9 147.5 67.1 143.8 64.6L143.8 64.6Z" />
	<path id="Layer" class="shp0" d="M82.3 62.7C77.1 60.4 67.8 56.1 62.7 60.5C62.5 60.7 62.2 60.4 62.4 60.2C62.7 59.9 63.1 59.6 63.5 59.3C59.8 61.2 56.2 63.1 52.7 65.3C62 63.8 70.4 71.4 77.9 76.3C84 80.3 91.1 83.9 98.3 85.1C102.5 85.8 106.8 85.8 110.8 84.2C102.3 86 93.1 81.4 88.8 73.9C88.7 73.7 89 73.4 89.1 73.6C95.6 81.6 102.7 83.9 112.6 83.2C113.1 82.9 113.7 82.5 114.3 82.2C108.1 80.1 102.9 76.1 97.7 72.2C92.8 68.4 88 65.1 82.3 62.7L82.3 62.7Z" />
	<path id="Layer" class="shp0" d="M146.1 56.1C149 56.4 151.8 56.8 154.7 57C161.3 56.4 167.5 56.2 173.6 53.1C175.8 52 177.9 50.3 180 48.9C173.3 51.6 165.6 51.5 158.1 50C151.6 48.7 145.2 47.1 138.8 45.2C131.4 43 123.8 40.9 116.1 42.6C115.9 42.6 115.9 42.5 115.9 42.4C110.2 43.7 104.5 44.9 98.8 46.4C110.7 47 121.2 53.2 131.7 58.2C131.9 58.3 132 58.4 132.2 58.4C138.4 60.9 145.4 63.8 152.1 64.4C154.1 64.5 156.3 64.4 158.4 64.1C159.1 63.9 159.9 63.8 160.6 63.7C161.3 63.5 161.9 63.3 162.5 63.1C163 62.9 163.5 62.7 164 62.4C164.3 62.1 164.7 61.9 165.1 61.8C167.6 60.5 169.8 58.8 172.2 57.2C172.6 56.7 173.1 56.3 173.6 55.9C164.9 59.1 154.4 58.8 146 56.5C145.7 56.6 145.8 56.1 146.1 56.1L146.1 56.1Z" />
	<path id="Layer" class="shp0" d="M78 52.8C73.7 54.4 69.5 56.3 65.4 58.3C72.8 55.8 84.7 62.5 90.1 65.6C96.9 69.4 102.4 75.2 109.3 78.8C113.6 81 118.8 83 123.8 81.8C127.5 80.9 130.9 79.1 134.4 77.7C135.2 77.1 136.3 76.6 137.2 76.2C117 75.6 99.7 49.7 78 52.8Z" />
	<path id="Layer" class="shp0" d="M196.2 23.5C193.6 24.8 190.7 25.6 187.7 26.1C185.8 26.4 183.8 26.6 181.9 26.9C185.1 27 188.5 27 191.5 26C193.4 25.3 194.8 24.4 196.2 23.5L196.2 23.5Z" />
	<path id="Layer" class="shp1" d="M40.9 67.8C45.5 64.9 50.2 62.2 55.1 59.9L56.3 58.7L48.9 58.7C46.5 61.9 43.9 65 40.9 67.8L40.9 67.8Z" />
	<path id="Layer" class="shp1" d="M28.7 82.4C28.5 82.5 28.4 82.4 28.3 82.3C26.6 83.7 24.8 85.1 23.1 86.5C27.1 85.3 33.1 88 36.1 89.2C40.6 91.1 44.8 93.7 49.5 94.8C51.1 95.2 52.6 95.3 54.2 95.4C51.3 94.7 48.6 93.3 46.8 91.4C46.7 91.2 46.9 91.1 47 91.2C49.2 93 51.7 94.2 54.6 94.7C56.1 95 57.7 95 59.2 95.1C60.8 94.9 62.3 94.5 63.9 94.2C61.9 93.6 59.9 92.8 58 92C50.2 88.2 37.5 76.7 28.7 82.4L28.7 82.4Z" />
	<path id="Layer" class="shp1" d="M21.1 88.4C22.8 87.6 25.8 88 27 88.2C29.9 88.6 32.9 89.2 35.3 90.9C35.5 91 35.3 91.3 35.1 91.2C32.3 90 29.2 89.1 26.2 88.9C24.9 88.8 23.5 88.7 22.2 89C21.5 89.2 20.9 89.5 20.2 89.5C20.1 89.5 20.1 89.4 20.1 89.4C20.2 89.3 20.3 89.1 20.4 89L20.3 88.9C18.9 90.1 17.4 91.4 16 92.7C19.9 91.6 25.7 93.2 28.7 94.2C36.9 96.9 44.6 98.4 53 96.3C50 96 47 95.2 44 94C38.5 91.6 26.9 83.6 21.1 88.4L21.1 88.4Z" />
	<path id="Layer" class="shp1" d="M52.7 76.2C49.7 75.1 43.8 72.5 39.9 73.5C36.7 75.7 33.6 78.1 30.5 80.4C36.2 78.2 43.7 82.6 48.3 85.4C53.4 88.4 58.6 91.6 64.4 93.2C65 93.4 65.5 93.5 66.1 93.6C66.2 93.6 66.2 93.6 66.3 93.5C66.4 93.5 66.5 93.6 66.6 93.7C69.5 94.3 72.1 94.4 74.8 94.2C69.1 94.1 63.3 91.9 59.8 87.8C59.6 87.6 59.9 87.3 60.1 87.5C66.6 92.7 73.3 93 81.1 92.7C82.2 92.3 83.2 91.9 84.3 91.3C77.8 90.1 71.3 86.5 65.7 83C61.6 80.3 57.4 78 52.7 76.2L52.7 76.2Z" />
	<path id="Layer" class="shp1" d="M30.8 64.9C28.1 70.7 25.4 76.5 21.5 81.5C23.2 80.2 24.8 79 26.5 77.7C29.5 73.3 33.3 69.6 36.6 65.5C38.4 63.3 39.9 61 41.3 58.7L33.8 58.7C32.8 60.7 31.8 62.7 30.8 64.9L30.8 64.9Z" />
	<path id="Layer" class="shp1" d="M28.3 76.4C32 73.7 35.8 71.1 39.6 68.6C42.3 65.2 45.1 62 47.8 58.7L42.3 58.7C38.3 65.1 33.2 70.6 28.3 76.4Z" />
	<path id="Layer" class="shp1" d="M17.5 84.4C17.4 84.3 17.4 84.2 17.5 84.1L18.7 82.9C19.2 82.3 19.6 81.8 20.1 81.2C24.1 75.7 25.3 69.3 28.1 63C28.2 62.8 28.5 62.9 28.5 63.2C27.2 67.7 25.9 72.2 23.8 76.3L23.8 76.2C25.5 73.4 27 70.5 28.4 67.6C29.2 65.7 30 63.8 30.9 61.9C30.9 61.8 31.1 61.8 31.1 61.8C31.2 61.7 31.2 61.6 31.3 61.5C31.7 60.6 32.1 59.7 32.6 58.7L29.9 58.7C27.8 61.8 26 65 24.4 68.4C21.3 75.1 18.6 82.3 13.5 87.7C14.8 86.7 16 85.7 17.3 84.7C17.4 84.6 17.4 84.5 17.5 84.4L17.5 84.4Z" />
	<path id="Layer" class="shp2" d="M197.9 15.6C192.4 18.4 186.9 21.3 181.4 24.1C180 24.8 180.7 26.9 182.2 26.9C188.8 26.9 196 22.9 200 17.7C201.2 16.2 198.6 14.7 197.4 16.2C194.1 20.5 187.7 24 182.2 24C182.5 24.9 182.7 25.9 183 26.8C188.5 24 194 21.1 199.5 18.3C201.1 17.3 199.6 14.7 197.9 15.6L197.9 15.6Z" />
	<path id="Layer" class="shp2" d="M201.6 8.1C197.8 11.9 193.9 15.6 190.1 19.3C189.1 20.3 190.1 22.4 191.6 21.8C194.5 20.7 197.2 18.7 199.4 16.5C201.5 14.5 203.8 12.1 204.2 9.1C204.4 7.2 201.4 7.2 201.2 9.1C200.9 11.3 198.4 13.4 196.9 14.8C195.1 16.4 193.1 18 190.8 18.9C191.3 19.7 191.8 20.6 192.3 21.4C196.1 17.6 200 13.9 203.8 10.2C205.1 8.9 203 6.8 201.6 8.1Z" />
	<path id="Layer" class="shp2" d="M199.9 15.9L195.1 20.1C193.9 21.1 195.2 23 196.6 22.6C199.2 21.9 201 19.9 202.2 17.7C203.2 16 200.6 14.5 199.6 16.2C198.7 17.8 197.6 19.3 195.7 19.8C196.2 20.6 196.7 21.5 197.2 22.3L202 18.1C203.4 16.7 201.3 14.6 199.9 15.9L199.9 15.9Z" />
	<path id="Layer" class="shp2" d="M183.4 28.9C188.7 28.7 192.8 28.8 197 25.2C198.2 24.2 196.9 22.4 195.5 22.7L172.7 27.5C171.3 27.8 171.3 30.1 172.7 30.4C176.2 31.2 180.3 29.4 183.7 28.9C185.6 28.6 184.8 25.7 182.9 26C180.1 26.4 176.2 28.1 173.4 27.5L173.4 30.4L196.2 25.6C195.7 24.8 195.2 23.9 194.7 23.1C191.2 26 187.5 25.8 183.3 25.9C181.5 26 181.5 29 183.4 28.9L183.4 28.9Z" />
	<path id="Layer" class="shp2" d="M192.3 29.6C195.5 28.4 199 26.8 200.1 23.3C200.6 21.8 198.7 21 197.6 21.8C195.4 23.6 193.1 25.3 190.8 27C189.3 28.2 191.4 30.3 192.9 29.1C195.1 27.3 197.5 25.7 199.7 23.9C198.9 23.4 198 22.9 197.2 22.4C196.5 24.8 193.6 25.8 191.5 26.6C189.7 27.4 190.5 30.3 192.3 29.6L192.3 29.6Z" />
	<path id="Layer" class="shp2" d="M168.2 32.5C170.9 33.8 173.7 34.4 176.6 34.8C176.7 33.8 176.9 32.8 177 31.9C170.2 32 163.5 32.1 156.7 32.2C154.8 32.2 154.8 35.2 156.7 35.2C167.9 35.4 178.8 38.2 189.8 34.6C191.4 34.1 191.1 31.6 189.4 31.7L186.8 31.7C186.9 32.7 187.1 33.7 187.2 34.6C188.9 34.1 190.2 33.7 191.7 32.7C192.9 31.9 192.5 29.9 190.9 29.9C183.6 29.8 176.2 29.7 168.9 29.7C167 29.7 167 32.7 168.9 32.7C176.2 32.8 183.6 32.9 190.9 32.9C190.6 32 190.4 31 190.1 30.1C189 31 187.8 31.5 186.3 31.7C184.7 32.1 185 34.7 186.7 34.6L189.3 34.6C189.2 33.6 189 32.6 188.9 31.7C178.1 35.1 167.5 32.3 156.5 32.1L156.5 35.1C163.3 35 170 34.9 176.8 34.8C178.4 34.8 178.9 32.1 177.2 31.9C174.6 31.5 172 31 169.5 29.9C167.9 29 166.4 31.6 168.2 32.5L168.2 32.5Z" />
	<path id="Layer" class="shp2" d="M154.9 35.9L162.4 35.9C164 35.9 164.5 33.3 162.8 33C160.1 32.5 157.6 32.7 154.9 32.9C153 33.1 153 36.1 154.9 35.9C157.3 35.7 159.6 35.4 162 35.8C162.1 34.8 162.3 33.8 162.4 32.9L154.9 32.9C153 32.9 153 35.9 154.9 35.9Z" />
	<path id="Layer" class="shp2" d="M161 38.6C170 41.2 180.7 43 189.4 38.7C190.8 38 190 36 188.6 35.9C177.9 35.4 167.3 34.9 156.6 34.4C154.9 34.3 154.6 36.9 156.2 37.3C157.9 37.7 159.4 38.2 161 38.6C162.9 39.1 163.7 36.2 161.8 35.7C160.2 35.3 158.7 34.8 157.1 34.4C157 35.4 156.8 36.4 156.7 37.3C167.4 37.8 178 38.3 188.7 38.8C188.4 37.9 188.2 36.9 187.9 36C180 39.9 169.9 37.9 161.8 35.6C160 35.2 159.2 38.1 161 38.6Z" />
	<path id="Layer" class="shp2" d="M167.5 22.8C164 24.9 160.6 27 157.1 29.1C155.6 30 156.6 32.2 158.3 31.8C162.7 30.8 166 28 169.3 25.1C170.7 23.8 168.6 21.7 167.2 23C164.3 25.6 161.4 28 157.5 28.9L158.7 31.6C162.2 29.5 165.6 27.4 169.1 25.3C170.7 24.4 169.2 21.8 167.5 22.8L167.5 22.8Z" />
	<path id="Layer" class="shp2" d="M169 25.4C176 21.2 182.9 16.9 189.9 12.7C191.3 11.8 190.4 9.5 188.7 10C180.1 12.4 173.7 17.3 167.1 23.1C165.7 24.4 167.8 26.5 169.2 25.2C175.4 19.7 181.4 15.2 189.4 12.9L188.2 10.2C181.2 14.4 174.3 18.7 167.3 22.9C165.9 23.8 167.4 26.4 169 25.4L169 25.4Z" />
	<path id="Layer" class="shp2" d="M180.2 21.7C180.7 21.4 181.2 21 181.7 20.6C183.3 19.5 181.9 17.1 180.2 18C175.5 20.6 170.8 23.2 166.2 25.8C164.7 26.6 165.7 29 167.4 28.5C172.1 27.3 176.1 24.4 180.2 21.7C181.8 20.7 180.3 18.1 178.7 19.1C174.9 21.6 171 24.5 166.6 25.7L167.8 28.4C172.5 25.8 177.2 23.2 181.8 20.6C181.3 19.7 180.8 18.9 180.3 18C179.8 18.4 179.3 18.7 178.8 19.1C177.1 20.2 178.6 22.8 180.2 21.7L180.2 21.7Z" />
	<path id="Layer" class="shp2" d="M193.5 10.7C188.5 12.2 184.4 15.1 180.2 18C178.6 19.1 180 21.5 181.7 20.6C186 18.2 190.3 15.8 194.7 13.4C196.4 12.5 194.9 9.9 193.2 10.8C188.9 13.2 184.6 15.6 180.2 18C180.7 18.9 181.2 19.7 181.7 20.6C185.7 17.8 189.6 15 194.3 13.6C196.2 13 195.4 10.2 193.5 10.7L193.5 10.7Z" />
	<path id="Layer" class="shp2" d="M180.8 10.7C170.9 12.5 162.5 16.2 154.9 22.8C153.5 24 155.3 25.8 156.7 25.2C165.1 21.3 173.5 17.4 181.9 13.4C183.6 12.6 182.1 10 180.4 10.8C172 14.7 163.6 18.6 155.2 22.6C155.8 23.4 156.4 24.2 157 25C164.2 18.7 172.3 15.3 181.6 13.6C183.5 13.3 182.7 10.4 180.8 10.7L180.8 10.7Z" />
	<path id="Layer" class="shp2" d="M142.9 31.5C152.7 25.5 162.4 19.5 172.1 13.5C173.5 12.7 172.6 10.1 170.9 10.8C165.4 13.1 159.5 14.7 154.3 17.7C149.3 20.6 144.9 25 141 29.2C139.7 30.6 141.8 32.7 143.1 31.3C146.9 27.3 151 23.1 155.8 20.3C160.7 17.4 166.4 15.9 171.7 13.7L170.5 11C160.7 17 151 23 141.3 29C139.8 29.9 141.3 32.5 142.9 31.5Z" />
	<path id="Layer" class="shp2" d="M130.4 30.7C142.2 25.6 153.9 20.5 165.6 15.5C166.7 15 166.5 13 165.2 12.8C150.7 10.5 136.7 16.8 128.3 28.7C127.2 30.3 129.8 31.8 130.9 30.2C138.5 19.5 151.4 13.6 164.5 15.6C164.4 14.7 164.3 13.8 164.1 12.9C152.3 18 140.6 23.1 128.9 28.1C127.1 28.9 128.7 31.5 130.4 30.7L130.4 30.7Z" />
	<path id="Layer" class="shp2" d="M110.4 33.5C122.4 27.7 134.4 22 146.4 16.3C147.7 15.7 147.1 13.4 145.6 13.5C137.2 13.9 129 16 121.7 20.2C117.4 22.7 109.5 26.6 108.2 31.9C107.7 33.8 110.6 34.6 111.1 32.7C112.2 28.3 121 24 124.8 22C131.3 18.6 138.4 16.8 145.7 16.5C145.4 15.6 145.2 14.6 144.9 13.7C132.9 19.5 120.9 25.2 108.9 30.9C107.2 31.7 108.7 34.3 110.4 33.5L110.4 33.5Z" />
	<path id="Layer" class="shp2" d="M113.2 42.5C121.8 36.6 130.7 31.8 136.5 22.7C137.5 21.2 135.4 19.8 134.1 20.9L111.3 40.1C109.8 41.3 112 43.5 113.4 42.2L136.2 23L133.8 21.2C128.4 29.8 119.7 34.3 111.6 39.9C110.1 41 111.6 43.6 113.2 42.5L113.2 42.5Z" />
	<path id="Layer" class="shp2" d="M157.8 62.2C146.6 64.9 135.3 67.5 124 70.2C122.8 70.5 122.4 72.4 123.6 72.9C136 78.3 148.6 72 158.9 64.9C160.5 63.8 159 61.2 157.4 62.3C148.2 68.6 136.4 75.2 125.2 70.3C125.1 71.2 125 72.1 124.8 73C136 70.3 147.3 67.7 158.6 65C160.4 64.7 159.7 61.8 157.8 62.2L157.8 62.2Z" />
	<path id="Layer" class="shp2" d="M159 64.2C158.3 64.5 157.6 64.8 157 65.1C156.3 65.5 156.1 66.5 156.5 67.2C156.9 67.9 157.8 68.1 158.6 67.7C159.1 67.4 159.7 67.2 160.2 66.9C160.9 66.6 161.1 65.5 160.7 64.8C160.3 64.1 159.4 63.9 158.6 64.3C158.1 64.6 157.5 64.8 157 65.1C157.5 66 158 66.8 158.5 67.7C158.9 67.5 159.5 67.2 159.8 67.1C160.6 66.8 161.1 66.1 160.8 65.3C160.7 64.5 159.8 63.9 159 64.2L159 64.2Z" />
	<path id="Layer" class="shp2" d="M157 65.2C155.8 65.8 154.6 66.3 153.4 66.9C151.8 67.6 152.9 70.1 154.6 69.6C156 69.2 157.3 68.5 158.6 67.7C160.2 66.8 158.7 64.2 157 65.2C155.9 65.8 154.9 66.4 153.8 66.8L155 69.5C156.2 68.9 157.4 68.4 158.6 67.8C159.3 67.5 159.5 66.4 159.1 65.7C158.6 64.9 157.7 64.8 157 65.2L157 65.2Z" />
	<path id="Layer" class="shp2" d="M151.2 58.2C154.4 58.3 157.5 58.7 160.6 58.7C160.5 57.7 160.3 56.7 160.2 55.8C153.1 57.3 146.1 58.8 139 60.3C137.8 60.6 137.5 62.5 138.6 63C151.5 68.7 164.8 63.1 175.6 55.5C177 54.5 176.2 52.4 174.4 52.8C171.7 53.4 169.1 53.9 166.4 54.5C166.7 55.5 166.9 56.4 167.2 57.4C172.9 55.2 178 51.8 183.3 48.8C184.8 48 183.8 45.6 182.1 46.1C171.6 49.2 161.1 52.3 150.6 55.3C148.8 55.8 149.5 58.7 151.4 58.2C161.9 55.1 172.4 52 182.9 49L181.7 46.3C176.6 49.1 171.8 52.5 166.3 54.6C164.5 55.3 165.2 57.9 167.1 57.5C169.8 56.9 172.4 56.4 175.1 55.8L173.9 53.1C164.2 60 151.7 65.8 139.9 60.6C139.8 61.5 139.7 62.4 139.5 63.3C146.6 61.8 153.6 60.3 160.7 58.8C162.4 58.4 162 55.8 160.3 55.9C157.1 55.9 154 55.5 150.9 55.4C149.2 55.1 149.2 58.1 151.2 58.2L151.2 58.2Z" />
	<path id="Layer" class="shp2" d="M184.2 41.6C175.1 40.9 166 40.2 156.9 39.4C154.9 39.2 155 42.2 156.9 42.4C159.9 42.8 162.9 42.8 165.9 43.6C168.5 44.3 171 45.4 173.5 46.3L173.5 43.4L154.3 46.7C152.8 47 153 49.2 154.3 49.6C159.7 51.1 165 51.3 170.4 50.2C175.5 49.2 181.7 47.5 185.9 44.5C187.1 43.6 186.7 41.8 185.1 41.7L184.7 41.7C185 42.6 185.2 43.6 185.5 44.5C185.6 44.4 185.8 44.4 185.9 44.3C187.5 43.5 186.3 41.3 184.7 41.6C184.4 41.7 184 41.7 183.7 41.8C181.8 42.1 182.6 45 184.5 44.7C184.8 44.6 185.2 44.6 185.5 44.5L184.3 41.8C184.2 41.9 184 41.9 183.9 42C182.5 42.7 183.3 44.7 184.7 44.8L185.1 44.8C184.8 43.9 184.6 42.9 184.3 42C180.8 44.6 175.5 46 171.3 47C165.8 48.4 160.5 48.3 155 46.8L155 49.7L174.2 46.4C175.8 46.1 175.5 43.9 174.2 43.5C171.1 42.5 168.1 41.1 164.9 40.4C162.3 39.9 159.5 39.9 156.8 39.5L156.8 42.5C165.9 43.2 175 43.9 184.1 44.7C186.1 44.7 186.1 41.7 184.2 41.6L184.2 41.6Z" />
	<path id="Layer" class="shp2" d="M109.3 80.1C110.4 80.5 111.4 80.9 112.5 81.2C112.8 80.2 113 79.3 113.3 78.3C105.7 76.7 98.1 75.1 90.6 73.5C89.4 73.2 88.1 74.5 88.9 75.7C93.4 82.4 102.1 84.2 109.7 83.2C112 82.9 114.1 81.9 116.4 82C119.1 82.1 121.7 82.5 124.4 82C129.6 81.1 133.5 77.1 138.6 76C140.3 75.6 139.8 73.1 138.2 73.1C125.4 72.4 112.5 71.8 99.7 71.1C98.1 71 97.9 73.1 98.9 73.9C102.1 76.3 105.3 78.4 108.9 80.1C110.6 81 112.1 78.4 110.4 77.5C106.8 75.7 103.6 73.6 100.4 71.3C100.1 72.2 99.9 73.2 99.6 74.1C112.4 74.8 125.3 75.4 138.1 76.1C138 75.1 137.8 74.1 137.7 73.2C134.1 74 131.2 76.1 127.9 77.7C122.9 80.1 118.3 78.2 113.4 79.3C105.9 81 96.3 81.6 91.4 74.3C90.8 75 90.3 75.8 89.7 76.5C97.3 78.1 104.9 79.7 112.4 81.3C114.3 81.7 115.1 79 113.2 78.4C112.1 78.1 111 77.8 110 77.3C108.3 76.6 107.5 79.5 109.3 80.1L109.3 80.1Z" />
	<path id="Layer" class="shp2" d="M81.3 89.1C81.5 89.2 81.8 89.4 82 89.5C82.3 88.6 82.5 87.6 82.8 86.7C76.2 86.8 69.3 87.4 62.7 86.9C58.3 86.5 51.2 83.9 46 82.5C44.3 82 43.5 84.3 44.8 85.2C49.4 88.5 54.4 91.1 59.7 93.2C59.8 92.2 60 91.2 60.1 90.3C55.8 90.2 51.4 90 47.1 89.9C45.5 89.9 45.2 91.9 46.3 92.7C47.1 93.4 48.1 93.9 49.1 94.3L50.3 91.6C47.8 91 45.2 90.3 42.7 89.7C39 88.8 36.4 87.4 32.9 85.7C32.6 86.6 32.4 87.6 32.1 88.5C38.3 89 44.6 89.4 50.8 89.9C52.1 90 52.8 88.2 51.9 87.3C49 84.6 45.8 82.6 42.1 81.2C42 82.2 41.8 83.2 41.7 84.1C49.2 83.8 56.8 83.6 64.3 83.3C65.7 83.3 66.5 81.2 65.1 80.5C57.4 76.8 50.2 72.5 41.4 74.7C41.7 75.7 41.9 76.6 42.2 77.6C44.5 76.9 46.9 76.2 49.2 75.5C50.6 75.1 50.6 73.1 49.2 72.6C42.5 70.4 37.3 75.2 31.5 77.8C29.9 78.5 31.1 81 32.7 80.5C35.6 79.6 38.6 78.7 41.5 77.8C41.2 76.8 41 75.9 40.7 74.9C35.5 76.8 30.8 79.9 25.8 82.2C24.2 83 25.4 85.3 27 84.9C27.7 84.8 28.4 84.6 29.1 84.3L27.9 81.6L27.8 81.7C26.6 82.5 27 84.6 28.6 84.5C29.4 84.5 30.2 84.4 31 84.4C30.7 83.5 30.5 82.5 30.2 81.6C27.6 82.7 25.2 84 22.4 84.5C20.9 84.8 21.1 87 22.4 87.4C22.6 87.5 22.8 87.5 22.9 87.6L22.9 84.7C22.8 84.7 22.7 84.8 22.6 84.8C21 85.4 21.3 87.6 23 87.7C24.2 87.8 25.3 88.2 26.4 88.5L26.4 85.6C25.2 85.8 23.1 86.7 22 86.7C20.3 86.7 19.9 89.2 21.6 89.6C21.5 88.7 21.4 87.8 21.2 86.9C18.4 88.2 16.3 89.7 14.3 92.1C13.3 93.3 14.2 94.9 15.8 94.6C19.3 94 22.8 93.4 26.3 92.9C30.6 92.2 31.4 92 35 92.9C36.7 93.3 37.5 91.1 36.2 90.2C35.6 89.7 34.9 89.3 34.2 89C34.1 89.9 34 90.8 33.8 91.7C36.4 91.3 40.8 95.2 43.6 96.3C43.7 95.3 43.9 94.3 44 93.4C39.1 93.1 34.2 92.8 29.3 92.6C27.5 92.5 27.4 95 28.9 95.5C32.2 96.7 35.6 97.4 39 97.8C42.8 98.2 46.3 97.3 50 97.3C51.8 97.3 51.9 95 50.4 94.4C50.3 94.4 50.2 94.3 50.2 94.3L50.2 97.2C50.6 97.1 51 96.9 51.4 96.8C53 96.3 52.7 94 51 93.9C45.8 93.6 40.6 90.6 35.8 88.6L35.8 91.5C36.3 91.4 36.8 91.7 37.3 91.8C39 92.3 39.9 90 38.5 89.1C38.4 89 38.3 89 38.1 88.9C37.6 89.8 37.1 90.6 36.6 91.5C42.8 94.1 48.4 98.2 55.4 95.9C56.7 95.4 56.9 93.4 55.4 93C55.1 92.9 54.9 92.9 54.6 92.8C54.5 93.8 54.3 94.8 54.2 95.7C56.5 95.8 58.4 95.5 60.7 95.1C63.2 94.6 65 95 67.6 95.4C71.4 95.9 74.8 95.5 78.3 94C79.5 93.5 79.1 91.6 77.9 91.3L72.5 89.8C72.4 90.8 72.2 91.8 72.1 92.7C77.3 93.1 81.3 91 86.3 90.5C91.4 90 95.7 87.9 100.6 86.6C102.3 86.2 101.8 83.8 100.2 83.7C89 82.8 77.9 81.9 66.7 80.9C65.1 80.8 64.9 82.9 65.9 83.7C70.7 87.1 75.8 88.8 81.6 89.3C83.5 89.5 83.5 86.5 81.6 86.3C76.3 85.9 71.7 84.3 67.4 81.2C67.1 82.1 66.9 83.1 66.6 84C77.8 84.9 88.9 85.8 100.1 86.8C100 85.8 99.8 84.8 99.7 83.9C94.9 85.2 90.5 87.5 85.4 87.7C83.1 87.8 82.5 88.3 80.2 89.1C77.5 90 74.8 90.2 72 89.9C70.3 89.8 70 92.4 71.6 92.8L77 94.3C76.9 93.4 76.8 92.5 76.6 91.6C74.3 92.6 72 92.9 69.5 92.8C67.4 92.7 64.9 91.5 62.9 91.5C60 91.5 57.3 93.1 54.1 92.9C52.4 92.8 52.1 95.4 53.7 95.8C54 95.9 54.2 95.9 54.5 96L54.5 93.1C48.5 95.1 43.4 91.3 38.1 89C36.4 88.3 34.9 90.5 36.6 91.6C36.7 91.7 36.8 91.7 37 91.8L38.2 89.1C37 88.8 36.3 88.6 35.1 88.8C33.5 89.1 33.9 91.2 35.1 91.7C40.3 93.8 45.5 96.8 51.1 97.1C51 96.1 50.8 95.1 50.7 94.2C50.3 94.3 49.9 94.5 49.5 94.6C48 95.1 48.2 97 49.5 97.5C49.6 97.5 49.7 97.6 49.7 97.6C49.8 96.6 50 95.6 50.1 94.7C46.9 94.7 43.9 95.5 40.6 95.3C36.9 95 33.2 94.3 29.7 93C29.6 94 29.4 95 29.3 95.9C34.2 96.2 39.1 96.5 44 96.7C45.8 96.8 45.9 94.3 44.4 93.8C40.4 92.3 37.3 88.5 33 89.2C31.7 89.4 31.6 91.3 32.6 91.9C33.3 92.3 33.9 92.7 34.6 93.1L35.8 90.4C28.9 88.7 21.9 91 15 92.2C15.5 93 16 93.9 16.5 94.7C18.2 92.6 20.2 91.1 22.7 89.9C23.9 89.4 23.5 87.4 22.3 87.2C22.2 88.2 22 89.2 21.9 90.1C23.5 90.1 25.5 89.1 27.1 88.9C28.6 88.7 28.4 86.4 27.1 86C25.7 85.6 24.4 85.2 22.9 85.1C23 86.1 23.2 87.1 23.3 88C23.4 88 23.5 87.9 23.6 87.9C25 87.4 25.1 85.4 23.6 85C23.4 84.9 23.2 84.9 23.1 84.8L23.1 87.7C26.1 87.2 28.8 85.7 31.6 84.5C33 83.9 32.2 81.7 30.8 81.7C30 81.7 29.2 81.8 28.4 81.8C28.7 82.7 28.9 83.7 29.2 84.6L29.3 84.5C30.6 83.6 29.8 81.2 28.1 81.8C27.4 82.1 26.7 82.3 26 82.4L27.2 85.1C32 82.9 36.4 79.9 41.4 78.1C43.2 77.5 42.5 74.6 40.6 75.2C37.7 76.1 34.7 77 31.8 77.9L33 80.6C37.9 78.4 42.7 73.9 48.3 75.8L48.3 72.9C46 73.6 43.6 74.3 41.3 75C39.5 75.6 40.2 78.4 42.1 77.9C50 75.9 56.6 80.1 63.5 83.4C63.8 82.5 64 81.5 64.3 80.6C56.8 80.9 49.2 81.1 41.7 81.4C40 81.5 39.7 83.8 41.3 84.3C44.5 85.5 47.3 87.3 49.8 89.6C50.2 88.7 50.5 87.9 50.9 87C44.7 86.5 38.4 86.1 32.2 85.6C30.8 85.5 30.1 87.8 31.4 88.4C34.9 90 37.3 91.5 41 92.4C43.8 93.1 46.7 93.8 49.5 94.5C51.1 94.9 52.2 92.6 50.7 91.8C49.7 91.4 48.8 90.8 47.9 90.2C47.6 91.1 47.4 92.1 47.1 93C51.4 93.1 55.8 93.3 60.1 93.4C61.9 93.5 62 91 60.5 90.5C55.5 88.5 50.7 85.9 46.3 82.8L45.1 85.5C50.7 87 56.6 89.4 62.3 90C68.9 90.7 76 89.9 82.7 89.8C84.2 89.8 84.8 87.8 83.5 87C83.3 86.9 83 86.7 82.8 86.6C81.2 85.5 79.7 88.1 81.3 89.1L81.3 89.1Z" />
	<path id="Layer" class="shp2" d="M111.3 82.5L81.3 76.5C79.7 76.2 78.6 78.3 80.1 79.2C88.7 84.3 101.4 89.3 111.3 85.4C113.1 84.7 112.3 81.8 110.5 82.5C101.4 86.1 89.6 81.3 81.7 76.7L80.5 79.4L110.5 85.4C112.4 85.7 113.2 82.9 111.3 82.5Z" />
	<path id="Layer" class="shp2" d="M131.9 12.4C128.7 12.4 125.4 12.2 122.3 13C119.2 13.7 116.6 15.5 113.8 16.9C112.2 17.6 113.4 20 115 19.6L132.4 15.4C134.3 14.9 133.5 12 131.6 12.5L114.2 16.7L115.4 19.4C118 18.2 120.3 16.5 123.2 15.9C126.1 15.2 129.1 15.4 132 15.4C133.8 15.4 133.9 12.4 131.9 12.4L131.9 12.4Z" />
	<path id="Layer" class="shp2" d="M114.1 16.7C113.4 16.9 112.7 17 112 17.2C111.3 17.4 110.8 18.1 110.9 18.8C111 19.5 111.6 20.2 112.4 20.1C113.3 20 114.1 19.9 114.9 19.5C115.7 19.2 116.2 18.5 115.9 17.7C115.7 17 114.9 16.4 114.1 16.7C113.6 16.9 112.9 17.1 112.4 17.2C112.5 18.2 112.7 19.2 112.8 20.1C113.5 19.9 114.2 19.8 114.9 19.6C115.7 19.4 116.2 18.5 115.9 17.8C115.7 17 114.9 16.5 114.1 16.7L114.1 16.7Z" />
	<path id="Layer" class="shp2" d="M90.2 28.5L115.4 16.5C114.9 15.6 114.4 14.8 113.9 13.9C107.5 17.6 101.7 21.3 95.7 25.6C94.2 26.7 95.6 29.2 97.2 28.2C103.3 24.3 109.4 19.3 116 16.2C117 15.7 117 14.1 116 13.6L116 16.2C116.5 15.9 117 15.5 117.5 15.2C119.1 14.2 117.6 11.6 116 12.6C114.4 13.6 110.1 12.3 108 12.6C105.3 13 102.8 14.1 100.4 15.3C95.5 17.9 91.1 21.7 88.1 26.4C87.1 28 89.7 29.5 90.7 27.9C93.6 23.3 98.2 19.6 103.1 17.3C106 15.9 109.4 14.9 112.6 15.6C115.2 16.2 114.9 16.8 117.4 15.2C116.9 14.3 116.4 13.5 115.9 12.6C115.4 12.9 114.9 13.3 114.4 13.6C113.5 14.1 113.3 15.7 114.4 16.2L114.4 13.6C107.9 16.7 101.8 21.7 95.6 25.6C96.1 26.5 96.6 27.3 97.1 28.2C103.1 23.9 108.9 20.1 115.3 16.5C117 15.5 115.5 13.1 113.8 13.9L88.6 25.9C86.9 26.7 88.4 29.3 90.2 28.5Z" />
	<path id="Layer" class="shp2" d="M72.7 42C82.9 33.2 93.2 24.3 103.5 15.5C104.8 14.3 103.1 12.4 101.7 13.1C89.1 19.7 78.4 28.2 70.4 40.1C69.3 41.7 71.9 43.2 73 41.6C80.7 30.1 91.1 22 103.2 15.6C102.6 14.8 102 14 101.4 13.2C91.2 22 80.9 30.9 70.6 39.7C69.1 41.1 71.3 43.2 72.7 42L72.7 42Z" />
	<path id="Layer" class="shp2" d="M52.9 36.4C50.8 39.5 49.6 43.1 47.4 46.2C46.4 47.6 48.6 49.2 49.8 48C55.1 42.5 60.5 37.8 66.4 32.9L64.3 30.8C63 32.4 61.8 34 60.7 35.7C59.9 37 61.5 38.5 62.8 37.8C73.8 30.9 84.9 24.4 96.3 18C97.5 17.3 97.1 15 95.5 15.2C90.9 15.8 86.7 17.8 82.2 19C78.6 20 74.6 21.2 71.2 22.5C68.1 23.7 64.9 26.1 62 27.9C58.6 30 55.7 33 53.2 36.1C52 37.6 54.1 39.7 55.3 38.2C57.6 35.3 60.3 32.3 63.5 30.4C66.1 28.9 68.7 26.8 71.4 25.6C73.2 24.7 75 24.7 76.9 24.2C78.7 23.7 80.4 22.6 82.2 22C83.8 21.5 85.5 21.4 87.1 20.9C90 20 92.2 18.5 95.4 18.1C95.1 17.2 94.9 16.2 94.6 15.3C83.2 21.6 72.1 28.2 61.1 35.1L63.2 37.2C64.2 35.7 65.2 34.3 66.3 32.9C67.5 31.4 65.7 29.5 64.2 30.8C58.3 35.6 52.9 40.3 47.6 45.9L50 47.7C52.2 44.6 53.4 41.1 55.5 37.9C56.5 36.3 53.9 34.8 52.9 36.4L52.9 36.4Z" />
	<path id="Layer" class="shp2" d="M17.9 86.3C19 85.3 19.9 84.4 20.8 83.3L18.4 81.5C18.3 81.7 18.2 82 18.1 82.2C17.3 83.9 19.8 85.5 20.7 83.7C22.9 79.5 25 75.3 27.2 71C28.1 69.3 25.6 67.8 24.6 69.5C23.9 70.7 23.3 71.9 22.6 73.1C23.5 73.5 24.4 73.9 25.3 74.3C26.1 72 26.9 69.6 27.7 67.2C28.3 65.6 25.8 64.6 25 66C21.2 72.6 17.4 79.2 13.6 85.9C12.9 87.1 14.4 88.8 15.7 88L15.8 88C15.2 87.2 14.6 86.4 14 85.6C13.4 86.3 12.8 87 12.2 87.6C10.9 89.1 12.8 90.9 14.3 89.7C15.6 88.7 16.8 87.6 17.9 86.3C19.2 84.9 17.1 82.8 15.8 84.2C14.6 85.4 13.4 86.5 12.1 87.6L14.2 89.7C14.8 89 15.4 88.3 16 87.7C17.1 86.5 15.7 84.4 14.2 85.3L14.1 85.3L16.2 87.4C20 80.8 23.8 74.2 27.6 67.5C26.7 67.1 25.8 66.7 24.9 66.3C24.1 68.7 23.3 71 22.5 73.4C21.9 75 24.4 76 25.2 74.6C25.9 73.4 26.5 72.2 27.2 71C26.3 70.5 25.5 70 24.6 69.5C22.4 73.7 20.3 77.9 18.1 82.2C19 82.7 19.8 83.2 20.7 83.7C20.8 83.5 20.9 83.2 21 83C21.6 81.6 19.8 79.7 18.6 81.2C17.7 82.3 16.8 83.3 15.7 84.2C14.4 85.5 16.5 87.6 17.9 86.3L17.9 86.3Z" />
	<path id="Layer" class="shp2" d="M30.1 65.3C32.5 60.5 35 55.7 37.4 51C38.1 49.5 36.3 47.9 35 49.2C32.7 51.6 31.2 54.6 29.3 57.3C27.2 60.1 25.9 63.3 24.8 66.5C24.2 68.1 26.7 69.1 27.5 67.7C29.3 64.5 31.2 61.2 33 58C32.1 57.5 31.3 57 30.4 56.5C29.3 59.1 28.3 61.7 27.3 64.2C26.6 66 29.5 66.8 30.2 65C31.2 62.7 32 60.3 33 58C33.7 56.3 31.4 54.8 30.4 56.5C28.6 59.7 26.7 63 24.9 66.2C25.8 66.6 26.7 67 27.6 67.4C28.7 64.3 30 61.2 32 58.6C33.9 56.3 35 53.6 37.1 51.4L34.7 49.6C32.3 54.4 29.8 59.2 27.4 63.9C26.7 65.5 29.3 67 30.1 65.3L30.1 65.3Z" />
	<path id="Layer" class="shp2" d="M28.2 69.2C28.9 67.9 29.5 66.6 30.1 65.3C30.8 63.6 28.4 62 27.5 63.8C26.5 65.7 25.5 67.6 24.6 69.6C23.7 71.3 26.2 72.8 27.2 71.1C27.5 70.4 27.9 69.8 28.2 69.2C29.1 67.5 26.5 66 25.6 67.7C25.3 68.3 24.9 68.9 24.6 69.5C25.5 70 26.3 70.5 27.2 71C28.2 69.1 29.2 67.2 30.1 65.2C29.2 64.7 28.4 64.2 27.5 63.7C26.9 65 26.3 66.4 25.6 67.6C24.7 69.3 27.2 70.8 28.2 69.2L28.2 69.2Z" />
	<path id="Layer" class="shp2" d="M36.6 48.6C32.2 53.3 29.3 59.9 27.5 66C27 67.6 29.4 68.7 30.2 67.2C33.1 61.6 36 56 39 50.4C39.9 48.7 37.3 47.2 36.4 48.9C33.5 54.5 30.6 60.1 27.6 65.7C28.5 66.1 29.4 66.5 30.3 66.9C31.9 61.3 34.6 55.1 38.7 50.8C40.1 49.3 37.9 47.2 36.6 48.6L36.6 48.6Z" />
	<path id="Layer" class="shp2" d="M25.2 78.2C26.3 76.7 27.4 75.2 28.5 73.7C27.6 73.2 26.8 72.7 25.9 72.2C24.6 74.4 23.2 76.6 21.9 78.7C21 80.1 23.1 81.8 24.3 80.5C27.2 77.3 30.2 74.1 32.5 70.5C35.2 66.4 36.8 61.8 38.6 57.3C39.3 55.7 36.7 54.8 35.9 56.1C34.3 58.8 32.6 61.4 31 64.1C31.9 64.5 32.8 64.9 33.7 65.3C35.2 61.8 36.2 58.1 37.6 54.5C38.2 52.9 35.6 51.9 34.9 53.3C30.8 61.1 26.8 68.9 22.7 76.7C21.7 78.4 24.3 79.9 25.2 78.2C29.3 70.4 33.3 62.6 37.4 54.8C36.5 54.4 35.6 54 34.7 53.6C33.3 57.2 32.2 60.8 30.8 64.4C30.1 66 32.7 66.9 33.5 65.6C35.1 62.9 36.8 60.3 38.4 57.6C37.5 57.2 36.6 56.8 35.7 56.4C32.3 65 28.4 71.5 22.1 78.3L24.5 80.1C25.8 77.9 27.2 75.7 28.5 73.6C29.5 71.9 27 70.6 25.9 72.1C24.8 73.6 23.7 75.1 22.6 76.6C21.5 78.3 24.1 79.8 25.2 78.2L25.2 78.2Z" />
	<path id="Layer" class="shp2" d="M37.4 54.8C38.2 53.2 39.1 51.6 39.9 49.9C40.8 48.2 38.4 46.8 37.3 48.4C36.2 50 35.4 51.8 34.6 53.6C34.3 54.4 34.9 55.2 35.6 55.4C36.5 55.6 37.1 55.1 37.4 54.4C38.1 52.8 38.8 51.3 39.8 49.9C38.9 49.4 38.1 48.9 37.2 48.4C36.4 50 35.5 51.6 34.7 53.3C33.9 55 36.5 56.5 37.4 54.8L37.4 54.8Z" />
	<path id="Layer" class="shp2" d="M57.1 30.4C53.3 33.8 49 36.7 45.4 40.4C42 43.8 39.3 47.9 36.4 51.7C35.4 53.1 37.6 54.7 38.8 53.5C40 52.2 41.3 51 42.5 49.7L40.1 47.9C38.3 50.6 37 53.5 35.7 56.5C35 58.1 37.6 59 38.4 57.7C41.1 53.4 43.4 48.8 46.5 45.6C50.7 41.3 55 36.9 59.2 32.6C60.6 31.1 58.5 29 57.1 30.4C52.7 34.9 48.3 39.3 44 43.9C40.6 47.4 38.4 52 35.9 56.2C36.8 56.6 37.7 57 38.6 57.4C39.7 54.6 41 52.1 42.7 49.6C43.6 48.2 41.5 46.6 40.3 47.8C39.1 49.1 37.8 50.3 36.6 51.6L39 53.4C42.1 49.3 44.9 45.1 48.7 41.5C52.1 38.4 55.8 35.7 59.3 32.7C60.7 31.2 58.6 29.1 57.1 30.4L57.1 30.4Z" />
	<path id="Layer" class="shp2" d="M31.3 75.2C33.6 73 35.8 70.8 38.1 68.7C39.3 67.5 37.7 65.4 36.3 66.3C34.4 67.6 32.6 69 30.9 70.6L33.3 72.4C39.4 63.5 45.3 54.6 50 44.9C50.8 43.2 48.4 41.7 47.4 43.4C40.9 53.9 34.5 64.4 27.6 74.6C26.6 76 28.8 77.6 30 76.4C30.2 76.2 30.5 76 30.7 75.7L28.3 73.9L25.9 77.8C24.9 79.5 27.4 80.9 28.5 79.3C29.5 77.8 30.5 76.3 31.6 74.8C32.7 73.2 30.1 71.7 29 73.3C28 74.8 27 76.3 25.9 77.8C26.8 78.3 27.6 78.8 28.5 79.3L30.9 75.4C31.8 73.9 29.8 72.4 28.5 73.6C28.3 73.8 28 74 27.8 74.3L30.2 76.1C37.1 65.9 43.4 55.3 50 44.9C49.1 44.4 48.3 43.9 47.4 43.4C42.7 53.1 36.7 62 30.7 70.9C29.7 72.4 31.8 73.8 33.1 72.7C34.6 71.3 36.2 70 37.9 68.9C37.3 68.1 36.7 67.3 36.1 66.5C33.8 68.7 31.6 70.9 29.3 73C27.8 74.4 29.9 76.6 31.3 75.2L31.3 75.2Z" />
	<path id="Layer" class="shp2" d="M51.9 51.4C46.6 56.5 41.3 61.5 36 66.6C34.8 67.8 36.4 69.9 37.8 69C44.4 64.6 51.4 60.7 54.4 52.9C55.1 51.1 52.2 50.3 51.5 52.1C48.9 59.1 42.2 62.5 36.3 66.4C36.9 67.2 37.5 68 38.1 68.8C43.4 63.7 48.7 58.7 54 53.6C55.4 52.1 53.3 50 51.9 51.4L51.9 51.4Z" />
	<path id="Layer" class="shp2" d="M35.8 68.9C33.4 70.3 31.4 72.1 29.3 73.8C28 74.9 29.7 77.1 31.1 76.2C32.6 75.2 34.2 74.2 35.8 73.2L33.7 71.1C33.2 71.8 32.9 72.4 32.6 73.2C32.1 74.7 34.1 75.7 35.1 74.7C36 73.8 36.9 72.8 37.9 71.9C38.3 71.5 37.8 71.9 38 71.8C38.3 71.6 38.6 71.4 38.8 71.3C39.4 70.9 39.9 70.6 40.5 70.2C41.9 69.3 41 67 39.3 67.5C38.8 67.6 38.3 67.8 37.9 67.9C38.4 68.7 38.9 69.6 39.4 70.4L42.8 67C44 65.8 42.5 63.9 41 64.6C38.9 65.7 37 67.4 35.4 69.1C34 70.5 36.2 72.6 37.5 71.2C39 69.7 40.6 68.1 42.5 67.1C41.9 66.3 41.3 65.5 40.7 64.7L37.3 68.1C36.3 69.1 37.3 71.1 38.8 70.6C39.3 70.4 39.8 70.3 40.2 70.2L39 67.5C36.6 69 34.9 70.5 32.9 72.5C33.7 73 34.6 73.5 35.4 74C35.6 73.5 35.8 73 36.2 72.6C37.1 71.4 35.4 69.8 34.1 70.5C32.5 71.5 31 72.4 29.4 73.5C30 74.3 30.6 75.1 31.2 75.9C33.1 74.3 34.9 72.7 37.1 71.4C39 70.6 37.5 68 35.8 68.9L35.8 68.9Z" />
	<path id="Layer" class="shp2" d="M42.7 67.7C44.5 66.2 46.3 64.7 48 63.2C49.3 62.1 47.6 60 46.2 60.8C43.9 62.1 41.7 63.6 40.3 65.8C39.3 67.5 41.9 69 42.9 67.3C44 65.5 45.9 64.4 47.7 63.4C47.1 62.6 46.5 61.8 45.9 61C44.1 62.5 42.3 64 40.6 65.5C39.1 66.8 41.3 69 42.7 67.7L42.7 67.7Z" />
	<path id="Layer" class="shp2" d="M60 57.2C64.4 53.6 67.7 48.9 70.7 44.1C71.7 42.6 69.6 41.2 68.3 42.3C60.8 48.6 53.4 54.8 45.9 61.1C44.5 62.2 46.3 64.2 47.7 63.5C51.6 61.4 55.9 59.9 59.6 57.5C61.2 56.4 59.7 53.8 58.1 54.9C54.4 57.4 50.1 58.9 46.2 60.9C46.8 61.7 47.4 62.5 48 63.3C55.5 57 62.9 50.8 70.4 44.5L68 42.7C65.1 47.2 62 51.7 57.7 55.1C56.4 56.3 58.5 58.4 60 57.2L60 57.2Z" />
	<path id="Layer" class="shp2" d="M48.3 68.9C49.5 69.3 50.7 69.6 52 70C52.1 69 52.3 68 52.4 67.1C49.5 67.4 46.7 67.9 43.8 68.6C42.2 69 42.5 71.6 44.2 71.5C48.9 71.4 54.1 70.6 58.6 71.9C58.9 70.9 59.1 70 59.4 69C52.5 67.8 46.3 69.3 39.8 71.8C38.3 72.4 38.4 74.7 40.2 74.7L66.4 74.7C67.8 74.7 68.5 72.6 67.2 71.9C65.7 71.2 64.3 70.5 62.7 69.9C62.4 70.9 62.2 71.8 61.9 72.8L74.2 76.4C75.6 76.8 76.8 74.9 75.7 73.9C68.3 66.9 58.3 63.6 48.2 66C46.3 66.5 47.1 69.3 49 68.9C58 66.7 66.9 69.7 73.5 76C74 75.2 74.5 74.3 75 73.5L62.7 69.9C60.8 69.4 60.1 72.1 61.9 72.8C63.2 73.3 64.4 73.8 65.6 74.5C65.9 73.6 66.1 72.6 66.4 71.7L40.2 71.7C40.3 72.7 40.5 73.7 40.6 74.6C46.5 72.3 52.3 70.7 58.6 71.8C60.5 72.1 61.3 69.5 59.4 68.9C54.5 67.5 49.2 68.3 44.2 68.4C44.3 69.4 44.5 70.4 44.6 71.3C47.2 70.7 49.7 70.2 52.4 69.9C54 69.8 54.5 67.4 52.8 67C51.6 66.6 50.4 66.3 49.1 65.9C47.2 65.4 46.4 68.3 48.3 68.9L48.3 68.9Z" />
	<path id="Layer" class="shp2" d="M54.6 64.3C53.8 64.3 53 64.4 52.2 64.4C51.4 64.4 50.7 65.1 50.7 65.9C50.7 66.7 51.4 67.4 52.2 67.4C53 67.4 53.8 67.4 54.6 67.3C55.4 67.2 56.1 66.7 56.1 65.8C56.1 65.1 55.4 64.2 54.6 64.3C53.8 64.4 53 64.4 52.2 64.4L52.2 67.4C53 67.4 53.8 67.3 54.6 67.3C55.4 67.3 56.1 66.6 56.1 65.8C56.1 65 55.4 64.3 54.6 64.3Z" />
	<path id="Layer" class="shp2" d="M54.6 67.3C65 66.8 75.5 66.4 85.9 65.9C87.3 65.8 88.1 63.8 86.7 63.1C75.9 58.1 65.6 63.1 54.6 64.3C52.7 64.5 52.7 67.5 54.6 67.3C64.8 66.2 75.2 61.1 85.2 65.7C85.5 64.8 85.7 63.8 86 62.9C75.6 63.4 65.1 63.8 54.7 64.3C52.7 64.4 52.7 67.4 54.6 67.3L54.6 67.3Z" />
	<path id="Layer" class="shp2" d="M75 52C70.3 53.9 66.1 57.2 61 58C59.3 58.3 59.7 61.1 61.4 60.9C62.8 60.8 64.2 60.6 65.7 60.5C65.4 59.6 65.2 58.6 64.9 57.7C62.8 58.7 60.7 59.9 58.6 60.9C57 61.7 58.2 63.9 59.8 63.6C60.4 63.5 60.9 63.4 61.5 63.3L60.3 60.6C58.1 61.6 56 62.4 53.7 62.7C52 63 52.4 65.9 54.1 65.6C61.6 64.6 69.1 63.6 76.6 62.6C77.9 62.4 78.9 60.5 77.4 59.8C75.4 58.9 73.8 58.6 71.7 58.5C71.8 59.5 72 60.5 72.1 61.4C79.7 60.1 87.2 58.8 94.8 57.5C96.4 57.2 96.1 55 94.8 54.6L94.7 54.6C94.6 55.6 94.4 56.6 94.3 57.5C95 57.4 95.7 57.4 96.4 57.3C98.1 57.1 98.4 55 96.8 54.4C89.6 51.7 82.7 50 75 52C73.1 52.5 73.9 55.4 75.8 54.9C82.9 53 89.3 54.8 96 57.4C96.1 56.4 96.3 55.4 96.4 54.5C95.7 54.6 95 54.6 94.3 54.7C92.7 54.9 92.2 57.1 93.9 57.6L94 57.6L94 54.7C86.4 56 78.9 57.3 71.3 58.6C69.6 58.9 70.1 61.5 71.7 61.5L75.9 62.4C76.2 61.5 76.4 60.5 76.7 59.6C69.2 60.6 61.7 61.6 54.2 62.6C54.3 63.6 54.5 64.6 54.6 65.5C57.3 65.1 59.4 64.3 61.9 63.1C63.5 62.3 62.3 60.1 60.7 60.4C60.1 60.5 59.6 60.6 59 60.7L60.2 63.4C62.3 62.4 64.4 61.3 66.5 60.2C67.8 59.6 67.2 57.3 65.7 57.4C64.3 57.5 62.9 57.7 61.4 57.8C61.5 58.8 61.7 59.8 61.8 60.7C67 59.9 71 56.7 75.8 54.7C77.6 54.1 76.8 51.2 75 52L75 52Z" />
	<path id="Layer" class="shp2" d="M60.1 64.3C62 63.6 63.7 63 65.7 62.6C65.4 61.6 65.2 60.7 64.9 59.7C63 60.2 61.2 60.8 59.3 61.4C57.5 62 58.3 64.9 60.1 64.3C62 63.7 63.8 63.1 65.7 62.6C67.6 62.1 66.8 59.4 64.9 59.7C63 60 61.2 60.7 59.3 61.4C57.5 62 58.3 64.9 60.1 64.3Z" />
	<path id="Layer" class="shp2" d="M111.9 49.9C107.3 47.9 102.4 46.3 97.3 46.4C91.6 46.4 86.5 49.1 80.9 49.7C79 49.9 78.9 52.7 80.9 52.7L84.1 52.7C84 51.7 83.8 50.7 83.7 49.8C83.2 49.9 82.7 50 82.3 50C80.6 50.3 81 53 82.7 52.9C92.2 52.7 101.7 52.7 111.2 52.7C113.1 52.7 113.1 49.7 111.2 49.7C101.7 49.7 92.2 49.8 82.7 49.9C82.8 50.9 83 51.9 83.1 52.8C83.6 52.7 84.1 52.6 84.5 52.6C86.2 52.3 85.8 49.7 84.1 49.7L80.9 49.7L80.9 52.7C84.9 52.2 88.6 50.7 92.5 49.9C98.7 48.6 104.6 50 110.3 52.5C112.2 53.2 113.7 50.6 111.9 49.9L111.9 49.9Z" />
	<path id="Layer" class="shp2" d="M111 42.7C108.8 43.4 106.5 44 104.3 44.5C102.7 44.9 103 47.6 104.7 47.4C113.7 46.5 122.7 45.5 131.7 44.6C133.3 44.4 133.8 42.2 132.1 41.7C124.6 39.5 118.3 40.6 111 42.7C109.2 43.2 109.9 46.1 111.8 45.6C118.5 43.6 124.4 42.6 131.3 44.6C131.4 43.6 131.6 42.6 131.7 41.7C122.7 42.6 113.7 43.6 104.7 44.5C104.8 45.5 105 46.5 105.1 47.4C107.4 46.9 109.6 46.3 111.8 45.6C113.7 45.1 112.9 42.2 111 42.7L111 42.7Z" />
	<path id="Layer" class="shp2" d="M104.7 44.5L95.7 45.4C93.8 45.6 93.7 48.4 95.7 48.4C98.9 48.4 102 48.1 105.1 47.4C107 47 106.2 44.1 104.3 44.5C101.5 45.1 98.6 45.4 95.7 45.4L95.7 48.4L104.7 47.5C106.6 47.3 106.6 44.3 104.7 44.5L104.7 44.5Z" />
	<path id="Layer" class="shp2" d="M109.3 45.8C110.3 45.5 111.4 45.2 112.4 44.8C113.2 44.5 113.7 43.8 113.4 43C113.2 42.2 112.3 41.7 111.6 42C110.6 42.3 109.6 42.6 108.5 43C106.6 43.5 107.4 46.4 109.3 45.8C110.3 45.5 111.3 45.2 112.4 44.8C112.1 43.8 111.9 42.9 111.6 41.9C110.6 42.3 109.6 42.6 108.5 42.9C106.6 43.5 107.4 46.4 109.3 45.8Z" />
	<path id="Layer" class="shp2" d="M104.3 47.4C105.9 46.9 107.6 46.4 109.2 45.9C111 45.3 110.3 42.5 108.4 43C106.7 43.5 105.1 43.9 103.5 44.5C102.7 44.8 102.2 45.5 102.5 46.3C102.7 47 103.6 47.7 104.3 47.4C105.9 46.8 107.6 46.3 109.2 45.9C108.9 44.9 108.7 44 108.4 43C106.8 43.5 105.1 44 103.5 44.5C101.7 45 102.5 47.9 104.3 47.4L104.3 47.4Z" />
	<path id="Layer" class="shp2" d="M128 39C125.7 39.4 123.4 39.8 121 40.2C119.4 40.5 119.7 43.3 121.4 43.1C123.9 42.9 126.3 42.4 128.8 41.8C130.6 41.4 129.9 38.5 128 39C125.8 39.5 123.7 40 121.4 40.2C121.5 41.2 121.7 42.2 121.8 43.1C124.1 42.7 126.4 42.3 128.8 41.9C130.7 41.5 129.9 38.7 128 39L128 39Z" />
	<path id="Layer" class="shp2" d="M157.1 34C146.7 32.3 137.8 36.4 128 39C126.1 39.5 126.9 42.2 128.8 41.9C133.7 41 138.5 40.2 143.4 39.3C147.8 38.5 152.5 37.2 156.8 37.4C158.5 37.5 158.8 34.8 157.2 34.5C156.8 34.4 156.4 34.3 156.1 34.2L156.1 37.1C156.5 37 156.8 37 157.2 36.9C159.1 36.6 158.3 33.7 156.4 34C156 34.1 155.7 34.1 155.3 34.2C153.8 34.5 153.9 36.8 155.3 37.1C155.7 37.2 156.1 37.3 156.4 37.4C156.5 36.4 156.7 35.4 156.8 34.5C152.4 34.3 147.9 35.6 143.6 36.4C138.4 37.3 133.3 38.2 128.1 39.2C128.4 40.2 128.6 41.1 128.9 42.1C138 39.6 146.7 35.5 156.4 37.1C158.2 37.2 159 34.3 157.1 34L157.1 34Z" />
	<path id="Layer" fill-rule="evenodd" class="shp3" d="M211.4 -0.6C211.7 -0.8 212 -0.5 211.7 -0.5C211.7 -0.4 211.6 -0.4 211.6 -0.3C211.7 -0.3 211.8 0 211.6 0.1C211.4 0.3 211.2 0.4 211 0.6C209.6 2.8 208 4.8 206.9 7.2C206.8 7.2 206.8 7.3 206.8 7.3C206.5 8.3 206 9.3 205.5 10.2L203.7 13.8C204.1 15.6 202.2 18 201.2 19.8C201.4 21.3 200.5 23.3 199.6 24.8C199.5 25.1 199.3 25.4 199.2 25.7L199.2 25.8L199.1 25.9C198.2 27.7 197.2 29.3 196 30.6C194.9 32.4 193.3 34.1 192.2 35.8C192.1 36 191.9 36.3 191.8 36.5C191.9 38.5 190.6 40.9 189.5 42.2C189.2 42.6 188.3 43.4 187.3 44C186.8 44.4 186.4 44.8 185.9 45.2C185.9 45.3 186 45.4 185.9 45.5C183.3 51 178 55.4 172.6 57.9C171.4 59 170.3 59.9 169.1 60.7C169.1 60.8 169 60.8 169 60.9C165.9 64.3 161.9 67.4 157.6 69.8C154.8 72.1 150.5 73.6 147 74.3C144.4 75.3 141.8 75.9 139.3 76C138.6 76.4 137.9 76.6 137.4 76.9C137.4 77 137.4 77.1 137.3 77.2C131.8 81.2 123.8 84.5 116.9 82.8L115.7 82.5C115.6 82.5 115.6 82.6 115.5 82.6C114.4 82.8 112.4 84.6 111.4 85.1C110.5 85.5 109.3 85.9 108.4 86.1C106.2 86.5 104 86.8 101.8 86.6C101.9 86.7 101.8 86.8 101.7 86.9C98.4 89.6 94.9 91 91.4 91.4C89.4 91.7 87.3 91.6 85.3 91.3C79.4 95.8 72 96.1 65 94.3C61.2 95.8 57.4 96.4 53.6 96.1C53.6 96.2 53.6 96.3 53.5 96.3C47.5 99.1 40.2 98.1 34 96.3C31.07 95.47 27.17 93.6 23.4 92.69C25.44 93.08 27.35 93.65 28.7 94.1C36.9 96.8 44.6 98.3 53.1 96.1C50.1 95.8 47.1 95 44.1 93.8C38.5 91.5 26.9 83.5 21.1 88.3C22.7 87.6 25.8 87.9 27 88.1C29.9 88.5 32.9 89.1 35.3 90.8C35.4 90.9 35.3 91.2 35.1 91.1C32.3 89.9 29.3 89 26.2 88.8C24.9 88.7 23.5 88.6 22.2 88.9C21.5 89.1 20.9 89.4 20.2 89.4C20.1 89.4 20.1 89.4 20.1 89.3C20.2 89.1 20.3 89 20.4 88.9L20.3 88.8C18.8 90.1 17.4 91.3 16 92.6C16.67 92.41 17.4 92.3 18.17 92.25C17.06 92.41 16.02 92.77 15.1 93.4C15 93.4 14.7 93.5 14.4 93.6C12.6 95.3 10.8 96.9 9 98.6C9.2 98.7 9.3 98.8 9.2 99C8.5 101.4 4.2 104.1 1.8 102.7C-2.1 100.4 6 93.3 7.3 92.3C8.7 91.3 10 90.2 11.3 89.2C11.1 89 11 88.8 11.2 88.6C18.2 81.7 20.9 72.2 25.3 63.7C26.3 61.9 27.3 60.2 28.4 58.5C32.5 52.2 37.6 46.4 43 41.3C43.2 41.1 43.5 40.9 43.7 40.7C46.7 36.9 50.5 33.7 54.4 31.8C56.4 30.4 58.4 29 60.5 27.7C61.9 26.7 63.4 25.8 65 25.1C66.6 24.2 68.3 23.4 70 22.6C70.5 22.3 71 22.1 71.5 21.9C74.2 20.7 76.9 19.6 79.7 18.7C80.3 18.4 80.9 18.1 81.6 17.9C81.8 17.9 81.8 17.9 81.9 18C85.2 17.1 88.5 16.2 91.9 15.6C93.8 15.3 95.8 15 97.7 14.7C98.9 14.3 100.1 14 101.3 13.9C106.3 11.2 113.7 10.5 118 12.9C119.2 12.9 120.3 12.8 121.5 12.8C124 12 126.5 11.9 129.1 12.6C130.1 12.5 131.2 12.5 132.2 12.5C133.3 12.1 134.4 11.9 135.5 11.8C139.6 10.9 143.8 10.9 147.7 12.2L147.8 12.2C152.7 10.1 158.4 9.8 163.2 11.7C163.7 11.7 164.3 11.6 164.8 11.6C167.2 10.8 169.6 10.5 172 11C172.2 10.9 172.4 10.9 172.6 10.9C174.3 10.4 176.1 10.1 177.9 10.1C179.2 9.9 180.5 9.8 181.7 9.8C192 8.1 201 4.6 210.4 0.4L211.4 -0.6ZM185.6 11.3C181.6 13.1 178.3 15 174.9 18C172.7 20 170.6 22 168.3 23.8C164.8 26.5 161 28.7 157 30.5C162.4 28.9 167.7 27.2 172.9 25.2C174.2 22.6 178 20.7 180.3 19.4C181.4 18.8 182.5 18.2 183.5 17.6C185.2 16 187.6 14.8 189 13.8L191.7 12C190.8 12.4 189.9 12.9 189 13.4C187.7 14.2 186.4 14.9 185 15.6C182.2 17.4 179.2 18.9 176.5 20.9C174.8 22.2 173.2 23.5 171.5 24.6C171.2 24.8 170.8 25 170.5 25.2C169.9 25.7 169.1 26 168.4 26.4C168.3 26.4 168.3 26.3 168.3 26.3C167.7 26.6 167.1 26.8 166.6 27L166.5 27C166.4 27 166.3 27 166.3 26.9C166.2 26.9 166.2 27 166.1 27C165.9 27 165.8 26.8 165.9 26.7C173 20.6 179.2 13.6 188.3 10.7C188.4 10.6 188.5 10.6 188.6 10.5C187.6 10.7 186.6 11 185.6 11.3ZM166.9 12.6C164 13.2 161.3 14.1 158.6 16.2C154.7 18.9 151.3 22.1 147.9 25.4C143.7 29.3 139.4 33.6 134.2 36.2C136.6 35.7 138.9 35.1 141.2 34.6C143.2 33.7 145.1 32.8 146.9 31.5C149.1 30 151 28.2 153.3 26.8C153.6 26.6 153.8 26.9 153.6 27.1C151.6 29.2 149 30.9 146.6 32.5C145.9 32.9 145.2 33.4 144.5 33.8C146.6 33.3 148.6 32.8 150.7 32.3C153.1 31.1 155.5 30 157.8 28.8C160 26.8 162.5 25.1 164.7 23C166.6 21.1 168.1 18.9 170.1 17.2C171.9 15.6 173.9 14.2 176.1 13L176 13C175.2 13.1 174.5 13.2 173.7 13.3C171.5 14.2 169.2 14.9 167.2 15.9C163.8 17.7 160.9 20 157.7 22.2L157.6 22.2C157.3 22.4 156.9 22.7 156.6 22.9C156.4 23.1 156.1 22.8 156.3 22.6C159.9 18.9 164.2 14.9 169.1 12.5C168.3 12.5 167.6 12.6 166.9 12.6ZM160.9 13.4C155 12.8 148.9 14.7 143.7 17.4C139.5 19.7 136.3 23.1 132.5 26.1L132.4 26.1C130.9 27.7 129.5 29.3 127.9 30.7C123.1 35.1 117.8 38.2 112.1 40.9C114.9 40.3 117.7 39.6 120.5 39C123.1 36.6 126.9 35.1 129.9 33.3C134.7 30.5 138.1 27.3 141.1 22.7C141.3 22.5 141.7 22.6 141.6 22.9C140.1 27 136.8 30 133.2 32.3C129.8 34.5 126.3 36.6 122.7 38.6C125.2 38 127.8 37.5 130.3 36.9C139.4 33.6 145.4 25.8 152.5 19.6C154.8 17.6 157.7 15.2 160.9 13.4ZM198.3 24.5C198.3 24.4 198.3 24.3 198.2 24.3C195.2 26.9 190.9 28.3 186.9 28.5C182.5 28.7 177.9 28.1 173.5 28.7C172.9 28.8 172.2 29 171.6 29.1L171.7 29.1C176.6 29.1 181.5 29.3 186.4 29.2C190.9 29.1 193.9 28 197.4 25.9C197.7 25.5 198 25 198.2 24.6C198.3 24.6 198.3 24.5 198.3 24.5ZM151.4 34.4C151.2 34.4 151.1 34.5 150.9 34.5L151.6 34.5C151.5 34.5 151.4 34.4 151.4 34.4ZM127.6 18.6C123 20.8 119.2 24.2 114.8 26.8C114 27.7 113.2 28.5 112.4 29.4C109.1 33.2 105.7 37 101.7 40C98 42.8 93.5 44.3 89.8 47C95.9 45.2 102 43.6 108.2 42.1C112.3 40.3 116.5 38.5 120.2 36C125 32.8 128.6 28.9 132.4 24.7C135.5 21.2 139.3 17.2 143.7 14.6C143.8 14.5 144 14.4 144.1 14.3C138.4 15.2 133 15.9 127.6 18.6ZM111.4 19.5C111 19.6 110.8 19 111 18.9C112.7 17.6 114.6 16.2 116.5 15.1C113 15.8 109.7 16.9 106.4 19.1C101.8 22.2 97.7 26 94 30.1C87 37.8 80.4 45.9 72.4 52.7C74 52.1 75.5 51.5 77.1 51C82.5 47.7 87.6 45.1 92.1 40.3C95.9 36.1 99.3 31.5 103.3 27.6C103.5 27.4 103.9 27.7 103.7 27.9C99.9 32.8 95.9 37.7 91.5 42C88 45.4 84.4 47.7 80.3 49.9L88.1 47.5C88.1 47.4 88.1 47.4 88.2 47.3C92.5 43.5 98.2 42 102.5 38.2C107.1 34.3 110.8 29.7 114.9 25.3C117.8 22.2 121.5 18.5 125.5 15.8C125.5 15.8 125.5 15.7 125.6 15.7C125.7 15.7 125.9 15.6 126 15.5C127.1 14.8 128.3 14.1 129.4 13.6C128.8 13.6 128.1 13.6 127.5 13.5L125.4 13.5C123.3 13.7 121.3 14.3 119.4 15.3C116.7 16.7 114.2 18.3 111.4 19.5ZM98 16.4C94.1 18 90.5 19.7 87.1 22.9C82.5 27 78.7 31.7 75.1 36.7C70 43.8 64.8 53.1 57.6 58.8L57.7 58.8C62 56.8 66.4 55 70.9 53.3C80.9 44.8 88.3 34.2 97.7 25.2C102 21 107.7 16.1 113.9 14.2C113.6 14.2 113.4 14.1 113.1 14.1C111 14.2 108.8 14.4 106.7 14.6C105.2 14.8 103.7 15.2 102.3 15.7C100.6 16.5 99 17.5 97.4 18.7L97.3 18.7C94.4 21.5 91.9 24.6 88.9 27.3C88.8 27.5 88.6 27.2 88.7 27.1C91.3 24.1 93.8 20.3 97 17.7C97.3 17.3 97.6 16.8 98 16.4ZM87.2 17.8C84.6 18.5 82 19.2 79.3 20.2C75.4 22.6 71.7 25.1 68.5 28.5C64.8 32.5 61.8 37 59.1 41.7C55.8 47.5 52.6 53.3 48.7 58.7C46.4 62 43.8 65 40.8 67.8C45.4 64.9 50.1 62.3 55 59.9L56.2 58.7C60.1 54.8 63.8 50.9 67.1 46.4C70.8 41.4 74.3 36.2 78.1 31.2C81.9 26.1 87.4 19.9 93.7 16.5C93.3 16.5 93 16.5 92.6 16.6C91.7 16.8 90.9 17 90 17.2C82.4 19.5 77.2 26.4 70.8 31.3C70.6 31.4 70.3 31.2 70.5 31C75.5 26.1 80.8 20.7 87.2 17.8ZM62.7 28.1C59 31.1 55.7 34.2 53.1 38.4C50.2 43 47.7 47.8 45.5 52.7C44.5 54.8 43.5 56.7 42.3 58.6C38.3 65 33.2 70.5 28.3 76.3C32 73.6 35.7 71 39.6 68.5C42.3 65.1 45.1 62 47.8 58.6C49 57.1 50.2 55.5 51.3 53.8C54.7 48.5 57.3 42.8 60.6 37.5C64 32 68.2 26.6 73.4 22.6C68.8 24.8 64.7 27.4 61.2 31.7C57.4 36.4 54.6 41.6 51.6 46.8C51.4 47 51 46.9 51.1 46.6C53.4 40.5 57.4 33.4 62.7 28.1ZM114.3 82.1C108.1 80 102.9 76 97.7 72.1C95.6 70.5 93.6 69.1 91.5 67.7C88.6 65.8 85.5 64 82.2 62.6C79.1 61.2 74.4 59.1 70 58.6C69 58.5 68 58.5 67 58.6C65.4 58.8 63.9 59.3 62.7 60.4C62.5 60.6 62.2 60.3 62.4 60.1C62.7 59.8 63.1 59.5 63.5 59.2C59.8 61.1 56.2 63.1 52.7 65.2C62 63.7 70.3 71.3 77.9 76.2C82.1 78.9 86.8 81.5 91.6 83.2C93.8 84 96 84.6 98.3 85C102.5 85.7 106.9 85.7 110.8 84.1C103.8 85.5 96.4 82.7 91.6 77.5C90.6 76.4 89.7 75.1 88.9 73.8C88.7 73.6 89 73.3 89.2 73.5C90 74.5 90.8 75.4 91.6 76.2C97.5 82 104 83.8 112.7 83.1C113.2 82.8 113.8 82.4 114.3 82.1ZM56.3 31.8C47.1 38.2 40.9 45 37.1 56C37 56.2 36.6 56.2 36.6 55.9C36.7 54.5 37.1 53 37.6 51.5C36.2 53.9 35 56.3 33.7 58.7C32.7 60.7 31.7 62.8 30.7 64.9C28.1 70.7 25.3 76.5 21.4 81.5C23 80.2 24.7 78.9 26.4 77.7C29.4 73.3 33.2 69.6 36.5 65.5C38.3 63.3 39.8 61 41.2 58.7C43.1 55.4 44.8 51.9 46.4 48.3C48.8 43 52 36.7 56.3 31.8ZM13.5 87.6C14.7 86.7 16 85.7 17.3 84.6C17.4 84.5 17.4 84.4 17.5 84.3C17.4 84.2 17.4 84.1 17.5 84L18.7 82.8C19.2 82.2 19.6 81.7 20.1 81.1C24 75.6 25.2 69.2 28.1 62.9C28.2 62.7 28.6 62.9 28.5 63.1C27.26 67.38 26.03 71.67 24.1 75.6C25.68 72.96 27.08 70.23 28.4 67.5C29.3 65.6 30.1 63.7 30.9 61.8C30.9 61.7 31 61.7 31.1 61.7C31.2 61.6 31.2 61.5 31.3 61.4C31.8 60.5 32.2 59.5 32.6 58.6C34.1 55.1 35.8 51.5 37.9 48.3C35 51.6 32.3 55 29.9 58.6C27.8 61.7 26 64.9 24.4 68.3C21.3 74.9 18.5 82.2 13.5 87.6ZM23.8 76.1L23.8 76.2C23.9 76 24 75.8 24.1 75.6C24 75.77 23.9 75.94 23.8 76.1ZM18.17 92.25C19.8 92.03 21.58 92.25 23.4 92.69C21.67 92.36 19.84 92.15 18.17 92.25ZM59.2 95.1C60.8 94.8 62.3 94.5 63.9 94.1C61.9 93.5 59.9 92.8 58 91.9C50.2 88.3 37.5 76.8 28.7 82.4C28.6 82.5 28.4 82.4 28.3 82.3C26.5 83.7 24.8 85.1 23.1 86.5C27.1 85.3 33.2 88 36.1 89.2C40.5 91 44.7 93.7 49.5 94.8C51.1 95.2 52.7 95.4 54.2 95.4C51.3 94.7 48.6 93.3 46.8 91.4C46.6 91.3 46.8 91.1 47 91.2C49.3 92.9 51.8 94.2 54.6 94.7C56.1 95 57.7 95 59.2 95.1ZM81.2 92.7C82.2 92.3 83.3 91.8 84.4 91.2C77.9 90 71.4 86.5 65.8 82.9C61.7 80.3 57.4 78 52.8 76.2C49.8 75.1 43.9 72.5 40 73.5C36.8 75.7 33.7 78 30.6 80.4C36.2 78.2 43.7 82.6 48.4 85.4C53.6 88.5 58.7 91.6 64.5 93.2C65.1 93.3 65.7 93.5 66.2 93.6C66.3 93.5 66.3 93.5 66.4 93.5C66.5 93.5 66.7 93.6 66.7 93.7C69.6 94.3 72.3 94.5 74.9 94.2C69.2 94 63.3 91.8 59.9 87.8C59.7 87.6 60 87.3 60.2 87.5C66.8 92.7 73.5 93.1 81.2 92.7ZM91.6 90.1C94.8 89.5 97.7 88.1 101.2 86.6C97.9 86.2 94.8 85.3 91.8 84.2C89.5 83.4 87.3 82.4 85.1 81.2C79.6 78.3 74.7 74.7 69.5 71.3C63.9 67.7 57.9 64.5 51.5 66.1L50 67C57.6 65.8 67 70.7 71.2 76.7C71.4 76.8 71.1 77.1 70.9 76.9C65.2 71 57.2 66.4 48.8 67.7C46.4 69.2 44.1 70.7 41.8 72.3C47.3 72.2 55.1 76.1 58.1 77.5C63.5 80 68.3 83.6 73.6 86.3C77.9 88.5 82.7 90.6 87.7 90.5C89 90.5 90.3 90.4 91.6 90.1ZM137.4 76.2C117 75.6 99.7 49.7 78.1 52.8C73.8 54.4 69.6 56.3 65.5 58.3C68.2 57.4 71.6 57.8 75 58.7C80.8 60.3 86.8 63.7 90.2 65.6C90.7 65.8 91.2 66.1 91.6 66.4C97.8 70.2 103 75.5 109.5 78.8C113.9 81 119 83 124 81.8C127.7 80.9 131.1 79.1 134.6 77.7C135.4 77.1 136.5 76.7 137.4 76.2ZM159 66.6C154 67.9 147.5 67.1 143.9 64.5C138.3 63.2 132.8 60.7 128.3 57.5C118 52.6 107.6 47.2 97.4 46.9C97.3 46.9 97.2 46.9 97.2 46.8C96.2 47 95.3 47.2 94.3 47.5C101.9 46.5 108.9 49.2 115.5 53C123.7 57.8 131.3 63 140.4 66.2C140.6 66.3 140.5 66.6 140.3 66.6C123.2 63.3 111.8 44.8 92.8 48.2C92.6 48.2 92.5 48.1 92.5 48C89.5 48.8 86.5 49.7 83.6 50.7C82.4 51.1 81.3 51.5 80.2 51.9C91.5 51 101.8 57.8 111 63.6C115.7 66.6 120.6 69.8 125.8 72C128.9 72.8 132.2 72.7 135.3 72.9C138.8 73.1 142.4 73.3 145.8 72.5C150.8 71.4 154.7 69.2 159 66.6ZM146.1 56.7C145.7 56.6 145.8 56.1 146.2 56.3C149.1 56.6 151.9 57 154.8 57.2C161.4 56.6 167.6 56.4 173.7 53.3C175.9 52.2 178 50.5 180.1 49.1C173.4 51.8 165.7 51.6 158.2 50.2C151.7 48.9 145.3 47.3 138.9 45.4C131.5 43.2 123.9 41.1 116.2 42.8C116.1 42.9 116 42.7 116 42.6C110.3 43.9 104.6 45.2 98.9 46.6C110.8 47.1 121.2 53.4 131.8 58.4C132 58.4 132.1 58.5 132.3 58.6C138.5 61.1 145.4 63.9 152.2 64.6C154.3 64.6 156.4 64.6 158.5 64.3C159.2 64.2 160 64 160.7 63.9C161.3 63.7 162 63.5 162.6 63.3C163.1 63.1 163.6 62.8 164.1 62.6C164.4 62.3 164.8 62.1 165.2 62C167.7 60.7 169.9 59 172.3 57.4C172.7 56.9 173.1 56.5 173.7 56.1C165 59.3 154.5 59 146.1 56.7ZM183.4 45.7C180.9 45.9 178.1 45.5 176.8 45.3C173.4 44.7 170.3 43.4 167 42.6C163.6 41.7 160 41.6 156.5 41.1C156.4 41 156.4 40.8 156.5 40.8C160.1 40.3 163.4 40.5 166.7 41.1C171.1 41 175.6 41.3 179.9 40.5C181.1 40.3 182.1 40 183.2 39.7C177.4 40.7 170.7 38.5 165.1 37C157.8 36.2 150.4 35.2 144.2 36C139 37 133.8 38.1 128.7 39.4C126.1 40 123.4 40.7 120.8 41.3C130.8 40.3 141.4 45.2 151 47.3C157.1 48.6 163.4 50.2 169.6 49.9C174.9 49.7 179.2 48.1 183.4 45.7ZM171.3 42.2C171.3 42.2 171.31 42.2 171.34 42.2C171.33 42.2 171.31 42.2 171.3 42.2ZM187.1 35C188.3 34.4 189.4 33.6 190.5 32.9C186.9 33.5 182.8 33 179.9 32.8C175.7 32.5 171.5 32.4 167.4 32.6C172.3 33.5 176.9 34.3 182.1 34.1C182.3 34.1 182.3 34.1 182.4 34.2L184.2 34.2C184.6 34.2 184.7 34.7 184.3 34.8C179.6 35.9 173.8 36.2 169 35.6C166.2 35.2 163.5 34.5 160.7 34.1C157.8 34.2 154.9 34.4 151.9 34.5C157 34.7 162.2 35.7 167.2 36.2C167.6 36.2 168 36.2 168.4 36.3C169.3 36.4 170.3 36.5 171.2 36.5C176.3 36.7 181.8 36.9 186.6 35.2C186.7 35.1 186.9 35.1 187.1 35ZM174.3 26.2C174.3 26.2 174.4 26.2 174.6 26.1C174.5 26.1 174.5 26.1 174.6 26.1C174.4 26.1 174.3 26.2 174.3 26.2ZM182 26.8C185.3 26.9 188.6 27 191.7 25.8C193.4 25.2 194.9 24.3 196.3 23.4C193.7 24.8 190.7 25.5 187.8 26C185.8 26.3 183.9 26.6 182 26.8ZM200.1 19C200.3 18.6 200.5 18.1 200.8 17.5C200 18.1 199.1 18.6 198.2 19C193.5 22.8 187.1 24.5 181.1 25.6L181.7 25.6C188.5 25.3 195.4 23.8 200.1 19ZM199.9 14.4C201.3 13 202.5 11.4 203.7 9.9C203.6 10 203.5 10 203.4 10.1C200.2 13.8 195.8 17.2 191.3 19.8C191.8 19.7 192.2 19.6 192.6 19.5C194.9 17.7 197.8 16.5 199.9 14.4ZM207 3.4C206.6 3.6 206.1 3.9 205.7 4.1C206 4 206.2 3.9 206.5 3.9C206.7 3.8 206.9 3.6 207 3.4ZM159.6 30.9C159.4 30.9 159.2 31 159 31C159.2 31 159.4 30.9 159.6 30.9ZM62.8 58.7C60.6 59.8 58.4 61 56.2 62.2C58.4 61 60.6 59.8 62.8 58.7ZM190 37.7L190 37.6L190 37.7Z" />
</svg>